<?xml version="1.0" standalone="no"?>
<!DOCTYPE svg PUBLIC "-//W3C//DTD SVG 1.0//EN" "http://www.w3.org/TR/2001/REC-SVG-20010904/DTD/svg10.dtd">
<svg xmlns="http://www.w3.org/2000/svg" xmlns:xlink="http://www.w3.org/1999/xlink" id="body_1" width="614" height="461">

<g transform="matrix(0.9003906 0 0 0.9003906 76.500015 -0)">
	<g>
        <path d="M243.534 148.725L208.228 148.725C 208.228 137.08801 203.72299 132.059 196.257 123.728004C 187.403 113.84601 175.276 100.311005 175.276 75.171005C 175.276 50.031006 187.404 36.497005 196.257 26.614006C 203.723 18.283005 208.228 13.254006 208.228 1.6170063L208.228 1.6170063L243.534 1.6170063C 243.534 26.757006 231.40599 40.291008 222.553 50.174004C 215.08699 58.505005 210.582 63.534004 210.582 75.171005C 210.582 86.80801 215.087 91.837006 222.553 100.16701C 231.406 110.051 243.534 123.585 243.534 148.725z" stroke="none" fill="#FF5023" fill-rule="nonzero" />
        <path d="M321.206 148.725L285.9 148.725C 285.9 137.08801 281.395 132.059 273.929 123.728004C 265.07498 113.84601 252.94798 100.311005 252.94798 75.171005C 252.94798 50.031006 265.076 36.497005 273.929 26.614006L273.929 26.614006L300.22498 50.175007C 292.75897 58.50601 288.25397 63.535007 288.25397 75.172005C 288.25397 86.809006 292.75897 91.838005 300.22498 100.16801C 309.079 110.051 321.206 123.585 321.206 148.725z" stroke="none" fill="#FF5023" fill-rule="nonzero" />
	</g>
	<g>
        <path d="M401.233 313.485L401.233 278.179C 427.832 278.179 445.283 273.05698 456.15 262.06198C 471.892 246.13599 476.27 214.73299 476.666 172.26198L476.666 172.26198L424.77 172.26198L424.77 136.95598L511.731 136.95598L511.935 154.40298C 512.658 216.29999 507.78 260.052 481.263 286.88098C 463.565 304.782 437.388 313.485 401.233 313.485z" stroke="none" fill="#93C7EF" fill-rule="nonzero" />
        <path d="M5.884 136.956L5.884 212.075C 5.884 258.781 20.404 303.432 47.874 341.20502L47.874 341.20502L137.66501 464.66702L309.54102 464.66702L399.33203 341.20502C 426.80203 303.43103 441.32202 258.78003 441.32202 212.07501L441.32202 212.07501L441.32202 136.95601C 441.322 136.956 5.884 136.956 5.884 136.956z" stroke="none" fill="#93C7EF" fill-rule="nonzero" />
	</g>
    <path d="M224.704 136.956L224.704 464.666L309.542 464.666L399.333 341.20398C 426.803 303.43198 441.323 258.77997 441.323 212.07498L441.323 212.07498L441.323 136.95598C 441.322 136.956 224.704 136.956 224.704 136.956z" stroke="none" fill="#78B9EB" fill-rule="nonzero" />
	<g>
        <path d="M288.967 238.63L264.003 263.593L293.888 293.478L264.003 323.364L288.967 348.327L343.816 293.478L288.967 238.63" stroke="none" fill="#FFFFFF" fill-rule="nonzero" />
        <path d="M155.519 293.478L185.404 263.593L160.439 238.63L105.59 293.478L160.439 348.327L185.404 323.364L155.519 293.478" stroke="none" fill="#FFFFFF" fill-rule="nonzero" />
        <path d="M259.591 213.452L223.512 213.452L189.817 373.505L225.895 373.505L259.591 213.452" stroke="none" fill="#FFFFFF" fill-rule="nonzero" />
	</g>
    <path d="M0 437.055L0 463.30798C 0 489.26498 21.118 510.382 47.074 510.382L47.074 510.382L400.13202 510.382C 426.08902 510.382 447.20602 489.26398 447.20602 463.30798L447.20602 463.30798L447.20602 437.055L0 437.055z" stroke="none" fill="#AED5F3" fill-rule="nonzero" />
    <path d="M224.704 437.055L224.704 510.383L400.133 510.383C 426.09 510.383 447.207 489.26498 447.207 463.309L447.207 463.309L447.207 437.056L224.704 437.056L224.704 437.055z" stroke="none" fill="#93C7EF" fill-rule="nonzero" />
	<g>
	</g>
	<g>
	</g>
	<g>
	</g>
	<g>
	</g>
	<g>
	</g>
	<g>
	</g>
	<g>
	</g>
	<g>
	</g>
	<g>
	</g>
	<g>
	</g>
	<g>
	</g>
	<g>
	</g>
	<g>
	</g>
	<g>
	</g>
	<g>
	</g>
</g>
</svg>