<?xml version="1.0" standalone="no"?>
<!DOCTYPE svg PUBLIC "-//W3C//DTD SVG 20010904//EN"
 "http://www.w3.org/TR/2001/REC-SVG-20010904/DTD/svg10.dtd">
<svg version="1.0" xmlns="http://www.w3.org/2000/svg"
 width="500.000000pt" height="500.000000pt" viewBox="0 0 500.000000 500.000000"
 preserveAspectRatio="xMidYMid meet">

<g transform="translate(0.000000,500.000000) scale(0.100000,-0.100000)"
fill="#000000" stroke="none">
<path d="M0 4556 l0 -444 72 -12 c179 -28 174 -26 196 -78 23 -54 57 -180 50
-187 -2 -3 -40 -1 -84 4 -43 5 -114 13 -156 16 l-78 7 0 -46 c0 -36 3 -44 15
-40 8 4 15 1 15 -5 0 -6 7 -11 15 -11 8 0 15 5 15 11 0 15 18 2 31 -23 10 -19
9 -20 -40 -17 l-51 4 0 -1038 c0 -828 3 -1037 13 -1031 10 6 10 4 0 -7 -9 -9
-13 -49 -13 -122 l0 -110 28 29 c15 16 37 42 50 58 12 17 22 25 22 19 0 -13
-48 -74 -67 -86 -7 -4 -13 -12 -13 -18 0 -5 12 -1 27 8 35 23 22 -1 -19 -35
-39 -33 -38 -60 0 -32 29 22 102 44 102 31 0 -15 -69 -81 -84 -81 -24 0 -19
19 7 25 13 4 28 15 35 25 10 16 3 14 -35 -8 -43 -25 -47 -31 -49 -69 -2 -36 0
-40 17 -36 13 4 19 1 17 -8 -4 -18 28 -23 43 -6 8 8 20 13 29 11 101 -19 93
-32 -20 -30 l-90 1 0 -612 0 -613 615 0 c601 0 616 0 632 20 13 14 19 16 25 7
5 -8 8 -5 8 9 0 12 11 29 25 38 14 9 25 12 25 6 0 -5 4 -10 10 -10 5 0 7 7 4
15 -8 21 47 20 94 -2 40 -18 54 -32 46 -45 -10 -16 9 -8 23 10 7 9 13 13 12 7
-7 -50 -2 -53 75 -52 54 2 72 5 69 14 -6 16 -23 17 -23 2 0 -8 -4 -9 -13 0 -8
6 -17 7 -22 3 -4 -4 -5 5 -1 20 4 20 1 30 -13 40 -12 9 -17 19 -12 27 7 10 15
9 45 -3 20 -8 36 -20 36 -25 0 -6 6 -11 12 -11 20 0 118 -52 113 -60 -2 -4 52
-8 120 -9 69 -1 125 1 125 4 0 10 -159 190 -247 280 -86 88 -153 150 -226 209
-26 21 -46 41 -42 44 7 7 -55 72 -69 72 -5 0 1 -12 15 -27 23 -27 23 -27 -9 1
-33 31 -41 43 -19 30 6 -4 3 2 -7 14 -23 26 -45 30 -25 5 13 -16 12 -17 -3 -4
-10 7 -15 17 -13 21 3 5 -10 20 -28 34 -37 28 -53 33 -41 14 5 -9 3 -9 -9 1
-9 7 -15 17 -12 21 3 4 -11 20 -29 34 -38 28 -51 33 -40 14 4 -7 -2 -4 -14 6
-26 23 -30 34 -4 15 15 -13 16 -12 4 3 -8 10 -17 17 -20 16 -18 -2 -33 3 -29
10 3 4 -15 23 -40 42 -31 23 -54 33 -74 32 -51 -4 -33 37 42 97 28 23 55 41
59 41 4 0 56 -41 115 -90 60 -50 110 -88 113 -86 6 6 -53 90 -115 163 -29 34
-53 65 -53 68 0 3 12 10 26 15 22 9 32 6 65 -21 22 -17 37 -34 34 -37 -3 -3 3
-14 12 -25 17 -20 17 -20 -2 -13 -25 9 -38 21 177 -168 93 -81 168 -143 168
-138 0 5 -16 22 -36 37 -19 15 -33 30 -29 33 8 8 124 -109 122 -122 -1 -6 4
-10 11 -8 15 3 136 -114 129 -125 -3 -5 15 -30 40 -58 25 -27 42 -44 37 -36
-5 9 -3 12 4 7 7 -4 12 -15 12 -25 0 -10 12 -28 27 -42 18 -16 22 -17 13 -5
-9 12 -10 17 -3 12 7 -4 18 -16 24 -28 9 -16 8 -19 -3 -12 -11 7 -11 5 0 -9 8
-9 19 -15 24 -14 6 1 13 -4 16 -12 3 -9 0 -11 -8 -6 -9 5 -11 4 -6 -4 4 -6 11
-9 16 -6 5 3 21 -13 35 -36 38 -60 42 -41 4 22 -90 154 -267 350 -460 511
-235 195 -280 229 -291 222 -7 -4 -10 -3 -5 1 4 5 0 17 -10 27 -34 38 3 15 81
-50 196 -163 262 -211 302 -217 58 -9 67 -11 89 -19 40 -15 47 -16 68 -4 19
10 20 9 9 -4 -10 -13 -9 -16 7 -21 15 -3 18 -1 14 12 -4 14 -3 14 10 -1 19
-24 31 -23 24 2 -3 11 -1 20 4 20 5 0 9 -7 9 -15 0 -8 5 -15 10 -15 6 0 10 7
10 16 0 11 9 14 38 11 20 -2 47 -9 60 -15 18 -10 22 -10 22 0 0 9 3 9 10 -2 5
-8 10 -11 10 -6 0 5 7 3 15 -4 12 -10 15 -10 15 0 0 8 3 10 7 7 3 -4 12 -2 19
4 9 8 11 5 7 -10 -3 -12 -1 -21 6 -21 6 0 11 7 11 15 0 9 6 12 15 9 8 -4 15
-12 15 -20 0 -8 5 -14 11 -14 5 0 7 4 4 10 -3 6 1 7 9 4 9 -3 16 -13 16 -22 0
-12 3 -13 12 -4 15 15 25 15 31 -1 5 -12 0 22 -12 83 l-6 35 -18 -25 c-9 -13
-17 -19 -17 -13 0 6 -9 13 -20 16 -13 3 -20 14 -20 29 0 14 -3 18 -8 11 -8
-13 -35 -2 -31 13 1 5 -15 17 -35 27 -20 10 -39 24 -42 32 -4 8 -10 12 -15 9
-13 -7 -71 35 -63 47 3 5 2 8 -3 7 -15 -4 -53 22 -53 37 0 8 -5 15 -10 15 -22
0 -125 101 -122 119 2 8 -1 10 -8 6 -9 -5 -10 -1 -5 15 6 18 4 22 -8 17 -13
-5 -15 -2 -7 17 5 13 7 26 4 29 -3 2 -9 20 -14 38 l-9 34 20 -24 c11 -13 22
-21 26 -17 4 3 1 12 -5 18 -7 7 -12 17 -12 22 0 6 5 5 12 -2 7 -7 24 -12 39
-12 23 0 26 -3 22 -21 -6 -20 -7 -21 -19 -5 -8 11 -14 13 -19 7 -3 -6 -1 -11
4 -11 6 0 11 -6 11 -14 0 -9 8 -12 25 -8 14 2 25 8 25 13 0 20 -25 59 -35 55
-7 -2 -18 0 -26 5 -10 6 -2 9 24 9 35 0 48 12 27 25 -5 3 -10 1 -10 -6 0 -7
-3 -10 -6 -6 -3 3 1 16 10 29 13 19 16 20 16 5 0 -10 4 -15 10 -12 5 3 10 2
10 -3 0 -14 38 -22 44 -8 2 6 5 3 5 -8 1 -14 7 -17 25 -14 17 4 23 1 19 -9 -3
-7 0 -13 6 -13 6 0 11 -5 11 -11 0 -11 25 -39 34 -39 4 0 4 11 2 24 -4 20 -1
23 16 18 14 -3 19 -1 14 6 -5 8 -2 10 8 6 9 -3 16 -10 16 -16 0 -5 5 -6 11 -3
6 4 8 13 5 20 -6 17 19 27 50 19 16 -4 24 -2 24 7 0 11 2 12 9 1 11 -17 61 -5
68 17 3 9 8 23 11 31 3 8 7 26 8 40 2 14 8 26 13 28 5 2 7 10 4 19 -4 9 1 21
11 29 10 7 15 17 12 22 -10 16 4 41 20 35 8 -3 14 0 14 6 0 6 -7 11 -15 11
-12 0 -12 5 0 41 8 23 15 59 15 80 0 21 7 45 15 53 12 12 14 20 5 36 -9 17 -8
20 9 20 10 0 22 7 25 16 8 21 8 24 -4 24 -5 0 -10 -8 -10 -17 0 -13 -3 -14
-12 -5 -7 7 -13 48 -14 99 -2 55 1 82 7 72 5 -9 9 -10 9 -2 0 6 -4 15 -10 18
-5 3 -10 17 -10 31 0 14 -4 22 -10 19 -6 -3 -7 -17 -4 -30 3 -13 0 -26 -6 -30
-7 -4 -8 -10 -3 -14 5 -3 7 -27 5 -53 -3 -38 -7 -46 -20 -41 -13 4 -14 3 -4
-5 7 -5 15 -32 16 -60 1 -29 5 -54 8 -57 8 -9 -14 -105 -24 -105 -6 0 -8 -7
-4 -15 3 -8 3 -29 -1 -46 -4 -23 -10 -29 -24 -26 -12 3 -16 0 -12 -9 3 -8 10
-14 16 -14 6 0 8 -3 4 -6 -3 -4 -20 5 -36 19 -16 13 -27 28 -24 31 4 3 1 6 -5
6 -7 0 -12 6 -12 14 0 8 -12 24 -27 35 -24 18 -26 22 -13 32 13 9 12 10 -4 5
-17 -6 -65 28 -66 47 0 4 -11 20 -25 35 -14 15 -25 33 -25 41 0 10 -3 11 -14
2 -12 -10 -13 -8 -9 10 5 18 3 20 -14 15 -14 -4 -23 -1 -26 9 -4 8 -3 14 1 14
18 -3 20 3 7 27 -10 20 -11 32 -3 50 6 13 15 24 20 24 5 0 16 7 24 15 14 13
12 15 -13 15 l-27 0 22 16 c19 13 21 18 11 31 -10 12 -10 16 2 24 23 14 49 11
43 -6 -5 -11 -2 -13 10 -9 17 7 22 24 6 24 -5 0 -14 9 -20 21 -9 17 -8 23 6
33 12 9 14 15 6 20 -7 4 -16 4 -22 1 -5 -3 -10 -1 -10 5 0 17 28 23 42 8 16
-17 22 -42 8 -33 -5 3 -10 0 -10 -8 0 -8 8 -18 17 -21 10 -4 14 -4 10 0 -4 4
1 13 11 20 10 8 12 13 5 14 -7 0 -13 9 -13 20 0 11 -5 20 -11 20 -5 0 -7 5 -4
10 3 6 1 10 -5 10 -6 0 -8 10 -4 24 6 24 -8 59 -33 84 -16 16 -17 29 -3 37 6
3 7 17 4 31 -4 16 -2 24 6 24 10 0 10 3 1 14 -7 8 -13 30 -13 48 0 18 -5 39
-11 46 -19 24 5 27 26 2 12 -16 18 -18 14 -7 -5 13 -1 17 18 17 14 0 25 6 25
13 0 8 4 7 10 -3 5 -8 10 -13 11 -10 9 51 9 55 -1 40 -9 -12 -10 -10 -8 9 3
21 -2 26 -29 32 -18 3 -33 3 -33 0 0 -4 -13 -8 -30 -9 -20 -2 -28 2 -25 10 3
8 -12 20 -42 31 -56 20 -92 48 -98 75 -3 16 3 19 41 20 24 1 77 -4 117 -12
155 -31 217 -31 217 -1 0 11 -6 11 -30 2 -25 -9 -46 -7 -118 11 -48 12 -125
27 -172 33 -47 6 -92 13 -100 16 -8 4 -19 5 -24 4 -5 -1 -49 5 -97 15 -93 18
-153 13 -163 -12 -3 -8 -10 -12 -16 -9 -5 3 -15 3 -21 -1 -7 -4 -27 -8 -45 -9
-38 -2 -41 -4 -45 -25 -5 -31 13 -70 32 -70 10 0 19 -4 19 -10 0 -5 6 -10 13
-10 16 0 15 -46 -1 -62 -7 -7 -12 -17 -12 -22 0 -6 -15 -26 -34 -44 -27 -26
-35 -29 -40 -17 -7 18 -67 20 -84 3 -7 -7 -12 -20 -12 -30 0 -10 -4 -18 -10
-18 -17 0 -11 -22 11 -41 28 -24 62 -35 67 -20 2 6 18 11 36 11 27 0 33 -4 32
-19 0 -11 -12 -30 -26 -43 -19 -18 -34 -23 -72 -21 -56 3 -68 -11 -68 -80 0
-59 -10 -108 -21 -101 -5 3 -6 -1 -3 -9 3 -8 -3 -21 -13 -28 -10 -8 -19 -24
-21 -37 -1 -13 -9 -30 -17 -38 -8 -9 -18 -26 -21 -40 -3 -13 -10 -24 -14 -24
-5 0 -11 -9 -15 -20 -3 -11 -22 -38 -41 -61 -19 -22 -34 -48 -34 -57 0 -15 -2
-15 -11 -2 -8 12 -9 11 -5 -5 4 -13 -3 -30 -19 -47 -14 -15 -25 -32 -25 -37 0
-5 -7 -16 -15 -24 -8 -8 -16 -21 -17 -28 -2 -7 -15 -23 -30 -36 -14 -13 -29
-37 -33 -54 -5 -20 -12 -29 -23 -27 -13 2 -17 -5 -17 -27 0 -35 -22 -78 -36
-70 -18 11 -31 -6 -17 -23 10 -12 10 -16 1 -19 -7 -3 -13 -11 -13 -19 0 -9 -4
-12 -10 -9 -5 3 -10 2 -10 -3 0 -12 -45 -26 -89 -26 -27 -1 -43 8 -81 45 -27
26 -61 66 -76 90 -15 24 -43 61 -62 81 -39 41 -50 86 -51 199 -1 85 19 150 70
230 76 117 154 207 390 453 229 239 271 289 314 383 60 130 144 404 104 338
-22 -37 -55 -48 -44 -16 7 22 -20 35 -51 25 -15 -4 -14 -1 5 16 13 11 30 19
38 16 7 -3 13 -1 13 4 0 16 53 72 78 81 12 5 22 15 22 24 0 13 -6 12 -39 -5
-22 -11 -46 -29 -53 -39 -21 -29 -53 -38 -148 -40 -96 -2 -192 -16 -230 -35
-14 -7 -36 -10 -50 -6 -23 5 -26 13 -33 75 -8 77 3 104 25 59 9 -19 23 -31 43
-34 39 -7 38 -24 -1 -28 -26 -3 -31 -7 -27 -23 4 -15 14 -19 43 -19 50 0 141
21 134 31 -2 4 11 5 29 2 52 -8 146 15 207 51 30 19 72 39 93 46 21 6 41 19
44 29 18 57 31 75 72 103 25 17 97 83 158 145 71 72 131 123 163 139 27 14 50
27 50 30 0 3 -5 2 -10 -1 -5 -3 -10 0 -10 8 0 10 13 13 55 9 47 -4 61 -1 95
22 41 27 78 37 44 11 -19 -14 -18 -14 4 -15 15 0 22 6 22 19 0 11 8 26 18 33
29 20 49 59 57 105 8 49 23 61 66 55 22 -3 37 -15 55 -43 18 -28 31 -39 49
-39 14 0 39 -13 58 -30 17 -17 42 -39 53 -50 12 -11 28 -18 36 -15 8 3 28 -7
44 -22 16 -15 35 -26 42 -25 6 2 12 -1 12 -6 0 -6 11 -13 25 -16 17 -4 25 -12
23 -24 -2 -9 4 -17 12 -18 34 -3 40 -4 40 -14 0 -5 -6 -7 -13 -4 -8 3 -20 -3
-28 -13 -13 -16 -12 -17 3 -5 11 9 18 10 23 2 3 -5 1 -10 -5 -10 -6 0 -8 -4
-5 -10 4 -6 -1 -7 -12 -3 -10 4 -2 -9 18 -29 30 -30 45 -36 95 -42 103 -12
109 -12 106 2 -1 7 5 15 13 18 8 4 15 12 15 20 0 8 4 14 9 14 5 0 18 19 30 43
12 23 21 37 21 30 0 -7 7 -10 15 -7 10 4 12 15 8 36 -4 22 -3 29 5 24 6 -3 16
3 22 14 6 11 21 20 34 20 13 0 27 7 30 16 9 24 7 31 -5 11 -5 -9 -15 -17 -22
-17 -7 0 4 15 23 34 19 18 48 50 65 70 26 31 31 34 38 18 4 -10 5 1 2 24 -5
40 -4 42 26 48 17 3 53 6 79 6 l47 0 7 53 c3 28 6 69 6 90 0 32 -3 37 -22 37
-46 0 -67 11 -58 29 5 9 11 27 14 41 3 14 14 35 25 47 13 14 23 46 30 98 12
80 5 242 -11 262 -5 7 -5 14 1 17 6 4 8 13 4 21 -3 8 0 15 7 15 7 0 10 7 6 16
-5 13 -1 15 24 12 38 -6 38 3 1 33 -35 29 -87 90 -75 88 5 -1 12 -1 17 0 11 2
-21 73 -43 93 -18 17 -97 18 -1655 18 l-1635 0 0 -444z m3289 397 c12 -14 19
-29 15 -32 -3 -3 -12 3 -19 14 -8 11 -19 26 -25 33 -6 7 -7 12 -1 12 5 0 19
-12 30 -27z m66 -176 c-14 -7 -21 -5 -32 9 -21 28 -15 34 18 17 28 -14 30 -17
14 -26z m-948 -48 c5 -5 33 -10 62 -11 28 0 51 -5 51 -10 0 -6 6 -16 14 -22 7
-6 21 -36 31 -66 9 -30 29 -70 45 -90 31 -40 45 -76 32 -84 -10 -6 -3 -66 8
-66 5 0 11 6 13 13 3 6 6 1 6 -13 1 -49 4 -65 12 -71 5 -3 -15 -13 -44 -24
-28 -10 -63 -23 -77 -28 -14 -5 -32 -11 -40 -12 -8 -1 -31 -5 -51 -10 -23 -4
-39 -3 -43 4 -11 17 -33 13 -54 -9 -10 -11 -32 -21 -48 -22 -16 -1 -35 -11
-43 -21 -12 -17 -23 -19 -71 -14 -31 2 -76 15 -101 27 -43 23 -54 23 -204 17
-16 0 -54 0 -83 1 l-54 2 7 30 c8 37 -13 109 -26 89 -7 -11 -9 -10 -9 4 0 9
-6 17 -12 17 -10 0 -10 2 -1 8 8 5 8 16 -2 44 -10 30 -10 41 1 56 8 12 9 23 3
33 -19 30 -13 39 55 93 26 21 35 34 31 47 -5 14 0 22 19 29 14 5 26 14 26 19
0 18 55 6 80 -17 19 -18 32 -22 57 -17 21 4 33 1 35 -7 4 -10 8 -10 21 1 10 7
17 10 17 5 0 -5 12 -14 26 -21 22 -10 29 -9 45 6 12 11 29 16 44 13 19 -3 27
2 36 21 12 26 66 49 98 40 11 -3 30 2 43 11 27 19 31 19 45 5z m-687 -243 c0
-3 -4 -8 -10 -11 -5 -3 -10 -1 -10 4 0 6 5 11 10 11 6 0 10 -2 10 -4z m1598
-385 c-16 -26 -24 -27 -24 -1 0 11 4 20 9 20 5 0 6 8 3 18 -7 16 -6 16 9 1 14
-14 15 -20 3 -38z m-465 -366 c-7 -21 -13 -19 -13 6 0 11 4 18 10 14 5 -3 7
-12 3 -20z m-8 -35 c-3 -5 -10 -10 -16 -10 -5 0 -9 5 -9 10 0 6 7 10 16 10 8
0 12 -4 9 -10z m-2392 -231 c23 -37 -25 -68 -52 -35 -9 11 -10 20 -1 36 13 24
38 23 53 -1z m217 7 c6 -8 10 -27 8 -42 -2 -23 2 -29 22 -34 23 -5 26 -13 36
-84 10 -76 10 -77 -10 -72 -12 3 -45 6 -73 6 l-53 0 0 75 c0 68 2 75 20 75 18
0 18 1 3 28 -9 16 -14 36 -10 45 8 21 40 22 57 3z m-181 -90 c9 -11 38 -83 48
-121 4 -17 2 -16 -16 5 -17 21 -19 22 -15 5 4 -16 -5 -24 -44 -42 -28 -13 -53
-23 -57 -23 -4 0 -5 21 -2 48 3 26 3 41 0 35 -9 -24 -24 -13 -20 15 9 50 20
87 29 93 13 8 66 -2 77 -15z m448 12 c17 -28 0 -58 -29 -50 -19 5 -33 36 -23
52 9 14 42 12 52 -2z m-63 -123 c3 -8 1 -15 -4 -15 -5 0 -17 -14 -25 -30 -9
-17 -20 -28 -25 -25 -14 9 -13 16 10 53 22 35 35 40 44 17z m269 -107 c4 -10
8 -9 16 2 8 11 11 12 11 2 0 -7 5 -10 10 -7 6 3 10 2 10 -3 0 -5 -9 -12 -20
-15 -11 -3 -20 -13 -20 -22 0 -10 -6 -15 -17 -13 -11 2 -18 12 -17 26 1 28 -4
28 -28 -3 -11 -14 -24 -22 -30 -19 -6 4 -6 10 0 16 6 6 8 16 5 23 -8 22 72 34
80 13z m-132 -15 c13 -16 12 -17 -3 -4 -10 7 -18 15 -18 17 0 8 8 3 21 -13z
m-34 -20 c-3 -2 -7 -3 -10 -1 -2 2 -11 -3 -20 -11 -17 -14 -22 -5 -11 23 5 12
10 13 26 5 11 -6 17 -13 15 -16z m131 -25 c-2 -8 6 -12 22 -10 24 3 24 3 -4
-13 -33 -17 -31 -18 -40 13 -6 16 -3 22 8 22 9 0 15 -6 14 -12z m-268 -12 c0
-2 -8 -10 -17 -17 -16 -13 -17 -12 -4 4 13 16 21 21 21 13z m336 -25 c-3 -5
-16 -11 -28 -14 -22 -6 -22 -5 -4 8 22 17 40 20 32 6z m20 -20 c0 -11 -5 -17
-13 -14 -10 4 -11 9 -2 19 15 18 15 18 15 -5z m-398 -18 c-16 -39 -32 -54 -18
-19 12 33 19 46 25 46 3 0 -1 -12 -7 -27z m42 -70 c0 -7 3 -12 8 -11 4 1 21
-2 38 -6 22 -5 46 -25 78 -67 65 -84 68 -94 24 -76 -34 14 -35 14 -31 -4 3
-10 9 -19 14 -19 5 0 9 -5 9 -12 0 -6 -7 -4 -18 5 -32 30 -47 13 -16 -18 31
-31 5 -27 -28 4 -18 18 -62 48 -98 68 -80 45 -76 41 -63 54 7 7 15 6 26 -5 21
-22 28 -20 24 7 -2 12 -2 17 0 10 2 -7 12 -9 21 -6 14 5 15 3 5 -8 -19 -20
-16 -39 7 -39 11 0 20 -4 20 -8 0 -8 51 -36 54 -30 1 2 8 11 15 21 12 15 11
20 -6 35 -11 9 -24 32 -27 50 -7 28 -11 31 -32 26 -29 -8 -53 17 -54 55 0 24
0 24 15 5 8 -10 15 -25 15 -31z m-67 -20 c-5 -26 -3 -34 6 -29 6 4 10 15 9 23
-2 9 3 18 10 20 18 7 14 -19 -8 -47 -13 -17 -20 -20 -20 -10 0 10 -7 7 -20
-10 -10 -14 -22 -22 -25 -18 -4 4 2 16 13 28 11 12 22 35 26 51 8 42 16 36 9
-8z m67 -33 c0 -5 -2 -10 -4 -10 -3 0 -8 5 -11 10 -3 6 -1 10 4 10 6 0 11 -4
11 -10z m40 0 c0 -5 -4 -10 -10 -10 -5 0 -10 5 -10 10 0 6 5 10 10 10 6 0 10
-4 10 -10z m-126 -66 c12 -5 14 -10 6 -19 -9 -10 -18 -11 -41 -3 -22 8 -34 7
-42 -1 -8 -8 -8 -11 1 -11 6 0 9 -7 6 -15 -7 -18 7 -20 24 -3 9 9 15 9 24 0 9
-9 7 -12 -10 -12 -12 0 -22 -5 -22 -12 0 -9 -3 -9 -11 -1 -15 15 -51 4 -45
-14 3 -8 2 -11 -3 -8 -5 3 -12 1 -15 -4 -4 -5 3 -12 14 -16 11 -3 20 -11 20
-17 0 -5 6 -8 14 -5 10 4 12 0 9 -14 -5 -18 -6 -18 -18 -3 -12 18 -35 12 -35
-9 0 -7 4 -6 10 3 8 13 10 12 10 -2 0 -10 -7 -18 -15 -18 -8 0 -15 6 -15 13 0
8 -3 7 -9 -2 -8 -12 -11 -9 -17 13 -5 22 1 38 30 80 20 29 36 57 36 63 0 20
59 30 94 17z m146 -4 c0 -5 -4 -10 -9 -10 -6 0 -13 5 -16 10 -3 6 1 10 9 10 9
0 16 -4 16 -10z m-67 -32 c12 -6 28 -17 35 -25 19 -19 -7 -17 -32 2 -26 20
-36 19 -36 -2 0 -13 -3 -14 -12 -5 -34 34 -2 56 45 30z m-153 -58 c0 -5 -5
-10 -11 -10 -5 0 -7 5 -4 10 3 6 8 10 11 10 2 0 4 -4 4 -10z m-540 -84 c0 -22
3 -51 6 -62 5 -18 1 -22 -25 -26 -37 -5 -50 8 -40 42 l7 25 1 -27 c1 -31 25
-38 35 -12 10 25 7 34 -8 28 -11 -4 -14 2 -14 25 1 21 6 31 17 32 10 0 8 3 -6
9 -30 12 -29 18 2 12 22 -4 25 -10 25 -46z m695 44 c3 -5 -1 -10 -9 -10 -9 0
-16 5 -16 10 0 6 4 10 9 10 6 0 13 -4 16 -10z m983 -55 c-3 -3 -9 2 -12 12 -6
14 -5 15 5 6 7 -7 10 -15 7 -18z m-1401 -41 c12 -3 19 -12 17 -19 -3 -7 1 -29
10 -48 10 -25 11 -34 3 -31 -7 2 -13 -6 -13 -21 -2 -32 -21 -55 -45 -55 -14 0
-19 11 -24 58 -3 31 -7 72 -10 90 -3 28 -1 32 18 32 12 0 32 -3 44 -6z m418
-14 c-3 -5 -12 -10 -18 -10 -7 0 -6 4 3 10 19 12 23 12 15 0z m1127 -162 c12
-17 17 -28 10 -25 -6 4 -21 22 -34 39 -12 17 -17 28 -10 25 6 -4 21 -22 34
-39z m-1526 -52 c8 -8 14 -21 14 -28 -1 -8 -6 -7 -15 6 -7 10 -18 15 -24 11
-7 -3 -8 0 -5 9 8 20 12 20 30 2z m-60 -28 c-9 -5 -14 -13 -11 -18 3 -5 1 -11
-5 -15 -6 -4 -8 -11 -5 -16 4 -5 1 -9 -4 -9 -15 0 -14 16 4 51 9 17 21 27 27
23 7 -4 5 -10 -6 -16z m172 -50 c15 -15 16 -28 2 -28 -5 0 -10 6 -10 14 0 8
-6 17 -12 19 -7 3 -8 6 -2 6 5 1 15 -4 22 -11z m-32 -6 c6 -4 16 -17 23 -29
15 -29 -3 -31 -22 -3 -14 21 -15 21 -21 -3 -4 -19 -11 -24 -32 -21 -34 3 -44
14 -13 14 19 0 21 2 9 10 -13 8 -13 11 -1 22 10 10 12 10 7 1 -4 -8 -1 -13 8
-13 9 0 16 7 16 15 0 16 9 19 26 7z m-170 -38 c-4 -15 -3 -23 2 -20 6 3 12 -5
14 -19 4 -20 2 -23 -8 -15 -15 13 -38 73 -24 65 6 -4 10 -1 10 4 0 6 3 11 6
11 3 0 3 -12 0 -26z m250 14 c4 -6 3 -8 -4 -4 -5 3 -13 0 -15 -6 -3 -8 -6 -6
-6 5 -1 19 14 23 25 5z m84 -8 c0 -5 -2 -10 -4 -10 -3 0 -8 5 -11 10 -3 6 -1
10 4 10 6 0 11 -4 11 -10z m-280 -23 c10 -4 8 -6 -7 -6 -16 -1 -23 5 -23 17 0
10 3 13 8 6 4 -6 14 -14 22 -17z m1173 -22 c-3 -9 -8 -14 -10 -11 -3 3 -2 9 2
15 9 16 15 13 8 -4z m247 11 c0 -3 -4 -8 -10 -11 -5 -3 -10 -1 -10 4 0 6 5 11
10 11 6 0 10 -2 10 -4z m-1295 -46 c3 -6 -1 -7 -9 -4 -18 7 -21 14 -7 14 6 0
13 -4 16 -10z m-100 -10 c13 -6 15 -9 5 -9 -8 0 -22 4 -30 9 -18 12 -2 12 25
0z m942 -22 c-3 -8 -6 -5 -6 6 -1 11 2 17 5 13 3 -3 4 -12 1 -19z m-817 -92
c0 -2 -13 -9 -30 -15 -16 -5 -30 -6 -30 -1 0 5 8 11 18 13 24 7 42 8 42 3z
m1540 -30 c0 -3 -4 -8 -10 -11 -5 -3 -10 -1 -10 4 0 6 5 11 10 11 6 0 10 -2
10 -4z m-2010 -260 c0 -2 -7 -9 -15 -16 -13 -11 -14 -10 -9 4 5 14 24 23 24
12z m1555 -6 c3 -5 2 -10 -4 -10 -5 0 -13 5 -16 10 -3 6 -2 10 4 10 5 0 13 -4
16 -10z m50 -20 c19 -8 19 -9 -2 -9 -12 -1 -25 4 -28 9 -7 12 2 12 30 0z m322
-35 c0 -8 -7 -15 -15 -15 -12 0 -12 3 -2 15 7 8 13 15 15 15 1 0 2 -7 2 -15z
m48 -15 c-3 -5 -11 -10 -16 -10 -6 0 -7 5 -4 10 3 6 11 10 16 10 6 0 7 -4 4
-10z m-80 -41 c-4 -13 -2 -19 9 -19 9 0 16 6 16 13 0 6 5 4 11 -5 5 -10 16
-18 24 -18 9 0 12 -6 8 -17 -4 -11 -8 -13 -11 -5 -2 7 -8 10 -13 6 -5 -3 -9 3
-10 13 0 11 -3 13 -6 5 -2 -6 -9 -10 -14 -6 -5 3 -9 0 -9 -5 0 -6 7 -11 15
-11 18 0 20 -17 3 -22 -8 -3 -5 -12 10 -28 12 -13 22 -19 22 -12 0 6 -4 14
-10 17 -18 11 -10 23 20 27 16 2 31 0 33 -6 3 -8 11 -7 26 2 14 8 21 8 21 1 0
-5 8 -9 18 -7 22 3 72 -32 55 -39 -7 -3 -13 -9 -13 -15 0 -7 4 -7 13 0 8 7 18
8 27 1 13 -8 12 -12 -4 -24 -19 -14 -19 -15 7 -39 28 -26 35 -46 16 -46 -6 0
-18 7 -27 16 -10 11 -17 13 -20 5 -4 -13 -32 -15 -32 -2 0 5 -7 12 -16 15 -8
3 -12 2 -9 -4 3 -6 1 -10 -5 -10 -8 0 -10 9 -6 26 5 17 3 23 -4 19 -5 -3 -10
-16 -10 -28 0 -15 -3 -18 -8 -9 -5 7 -16 10 -25 6 -10 -3 -17 -1 -17 5 0 6 5
11 10 11 6 0 10 7 10 15 0 20 -17 19 -29 -2 -8 -14 -9 -11 -5 15 6 31 -9 47
-19 20 -5 -15 -40 18 -45 42 -2 8 -7 17 -12 20 -4 3 -9 19 -10 35 -4 54 0 76
10 70 6 -4 8 -15 5 -26z m-80 1 c3 -5 2 -10 -4 -10 -5 0 -13 5 -16 10 -3 6 -2
10 4 10 5 0 13 -4 16 -10z m205 -62 c0 -4 -9 0 -19 9 -11 9 -17 21 -14 26 6
10 33 -19 33 -35z m-1133 -100 c-3 -8 -6 -5 -6 6 -1 11 2 17 5 13 3 -3 4 -12
1 -19z m1283 -8 c0 -5 -4 -10 -9 -10 -6 0 -13 5 -16 10 -3 6 1 10 9 10 9 0 16
-4 16 -10z m-33 -96 c-9 -9 -28 6 -21 18 4 6 10 6 17 -1 6 -6 8 -13 4 -17z
m-1970 -36 c-3 -7 -5 -2 -5 12 0 14 2 19 5 13 2 -7 2 -19 0 -25z m-59 4 c22
-22 22 -48 -3 -65 -20 -15 -49 -12 -39 4 3 5 -1 6 -9 3 -35 -13 -29 47 6 64
12 6 23 11 25 11 1 1 10 -7 20 -17z m-112 -57 c-8 -8 -21 -15 -28 -16 -7 0 -4
-4 7 -9 16 -7 14 -9 -15 -9 l-34 -1 34 25 c39 27 59 33 36 10z m174 -1 c-15
-17 -17 -17 -23 -1 -3 8 3 14 15 14 16 2 17 -1 8 -13z m1880 -9 c0 -8 -4 -15
-10 -15 -5 0 -7 7 -4 15 4 8 8 15 10 15 2 0 4 -7 4 -15z m-1823 -102 c-7 -7
-57 8 -57 18 0 4 14 3 31 -3 16 -6 28 -12 26 -15z m1543 -205 c0 -6 7 -8 14
-5 10 4 13 1 9 -9 -6 -15 25 -20 43 -6 5 4 1 -1 -9 -10 -18 -17 -18 -18 2 -35
24 -20 27 -33 7 -33 -8 0 -17 -6 -19 -12 -9 -22 -47 34 -40 60 4 17 2 21 -10
16 -8 -3 -18 -1 -22 5 -3 6 -1 11 4 11 6 0 11 5 11 11 0 6 -7 9 -14 6 -10 -4
-13 -1 -10 8 6 15 34 9 34 -7z m-365 -93 c44 -38 93 -80 109 -93 16 -12 27
-24 25 -26 -4 -5 -209 169 -239 201 -14 16 -13 16 5 3 11 -8 56 -46 100 -85z
m460 45 c3 -5 -1 -10 -9 -10 -9 0 -16 5 -16 10 0 6 4 10 9 10 6 0 13 -4 16
-10z m18 -53 c-17 -24 -47 -33 -40 -13 3 9 43 35 55 36 2 0 -5 -10 -15 -23z
m64 -26 c8 8 16 6 31 -9 11 -11 18 -23 15 -26 -4 -3 1 -6 9 -6 9 0 18 -10 21
-21 4 -14 11 -20 21 -16 10 4 13 1 10 -8 -5 -12 -10 -12 -30 3 -13 9 -24 20
-24 25 0 4 -12 4 -26 1 -16 -4 -29 -2 -34 6 -6 9 -12 9 -30 0 -13 -7 -20 -8
-16 -1 8 12 -28 33 -39 23 -5 -4 -5 -1 -1 6 4 6 13 12 20 12 8 0 16 10 20 23
l6 22 18 -23 c13 -17 20 -20 29 -11z m-896 -18 c13 -17 13 -17 -6 -3 -11 8
-22 16 -24 17 -2 2 0 3 6 3 6 0 17 -8 24 -17z m739 7 c0 -5 -5 -10 -11 -10 -5
0 -7 5 -4 10 3 6 8 10 11 10 2 0 4 -4 4 -10z m45 0 c3 -5 1 -10 -4 -10 -6 0
-11 5 -11 10 0 6 2 10 4 10 3 0 8 -4 11 -10z m5 -365 c13 -14 21 -25 18 -25
-2 0 -15 11 -28 25 -13 14 -21 25 -18 25 2 0 15 -11 28 -25z m90 -106 c0 -6
-4 -7 -10 -4 -5 3 -10 11 -10 16 0 6 5 7 10 4 6 -3 10 -11 10 -16z m-521 -53
c13 -20 19 -41 14 -52 -4 -12 -3 -15 5 -10 7 4 12 2 12 -3 0 -14 -17 -14 -26
0 -3 6 -15 9 -25 6 -10 -3 -20 0 -22 6 -2 8 -10 5 -21 -6 -17 -17 -19 -17 -32
0 -16 22 -18 33 -4 33 6 0 10 -7 10 -16 0 -8 5 -12 10 -9 8 5 7 11 0 20 -15
18 -4 52 18 58 34 9 41 6 61 -27z m-31 -153 c16 -16 17 -16 20 0 4 22 11 21
42 -3 14 -11 30 -20 37 -20 18 0 23 -14 11 -30 -8 -12 -9 -12 -4 3 3 9 1 17
-3 17 -5 0 -11 -5 -13 -11 -3 -8 -10 -6 -21 5 -9 10 -22 14 -28 10 -8 -4 -9
-3 -5 4 5 8 0 11 -16 8 -25 -3 -68 12 -68 26 0 14 31 9 48 -9z m66 -94 c-8
-13 -21 -11 -27 5 -4 10 0 12 14 9 10 -3 16 -9 13 -14z m26 -54 c0 -8 -2 -15
-4 -15 -2 0 -6 7 -10 15 -3 8 -1 15 4 15 6 0 10 -7 10 -15z m36 -3 c1 -7 0 -8
-3 -2 -2 5 -9 8 -14 4 -5 -3 -9 0 -9 6 0 15 23 7 26 -8z"/>
<path d="M2122 4534 c10 -10 20 -15 24 -12 3 4 -5 12 -18 18 -22 12 -22 12 -6
-6z"/>
<path d="M2063 4523 c-15 -5 -18 -33 -4 -33 5 0 11 9 14 20 3 11 4 20 4 19 -1
0 -8 -3 -14 -6z"/>
<path d="M2161 4516 c-19 -10 -21 -15 -10 -22 34 -21 55 -13 50 19 0 4 4 7 9
7 6 0 10 -4 10 -10 0 -5 7 -10 16 -10 9 0 14 6 12 13 -6 17 -58 19 -87 3z"/>
<path d="M2265 4490 c-3 -5 -17 -10 -31 -10 -28 0 -33 -16 -6 -22 9 -2 28 7
41 19 13 13 19 23 13 23 -6 0 -14 -4 -17 -10z"/>
<path d="M2144 4460 c0 -13 5 -19 14 -15 7 3 19 5 25 5 12 1 -21 30 -33 30 -3
0 -6 -9 -6 -20z"/>
<path d="M1977 4463 c-12 -12 -7 -22 8 -17 8 4 15 10 15 15 0 11 -14 12 -23 2z"/>
<path d="M1780 4445 c0 -8 7 -15 15 -15 9 0 12 6 9 15 -4 8 -10 15 -15 15 -5
0 -9 -7 -9 -15z"/>
<path d="M2199 4453 c-1 -4 -1 -11 -1 -14 1 -3 -9 -5 -20 -5 -12 1 -23 -5 -26
-13 -3 -9 0 -11 8 -6 9 6 12 4 8 -6 -2 -8 3 -21 13 -30 16 -16 18 -15 38 12
12 15 21 33 21 38 0 12 -39 35 -41 24z"/>
<path d="M2276 4451 c-3 -5 1 -11 9 -15 9 -3 15 0 15 9 0 16 -16 20 -24 6z"/>
<path d="M1895 4440 c-7 -12 2 -12 30 0 19 8 19 9 -2 9 -12 1 -25 -3 -28 -9z"/>
<path d="M630 3461 c0 -10 30 -24 37 -17 3 2 -5 9 -16 16 -12 6 -21 7 -21 1z"/>
<path d="M2095 1500 c3 -5 8 -10 11 -10 2 0 4 5 4 10 0 6 -5 10 -11 10 -5 0
-7 -4 -4 -10z"/>
<path d="M2150 1494 c0 -8 5 -12 10 -9 6 3 10 -1 10 -9 0 -9 5 -16 10 -16 17
0 11 25 -10 38 -17 10 -20 10 -20 -4z"/>
<path d="M1870 920 c0 -5 5 -10 10 -10 6 0 10 5 10 10 0 6 -4 10 -10 10 -5 0
-10 -4 -10 -10z"/>
<path d="M1976 854 c-8 -20 0 -32 14 -18 5 5 5 15 1 22 -6 11 -10 10 -15 -4z"/>
<path d="M2030 835 c0 -8 5 -15 10 -15 6 0 10 7 10 15 0 8 -4 15 -10 15 -5 0
-10 -7 -10 -15z"/>
<path d="M1420 300 c0 -5 5 -10 10 -10 6 0 10 5 10 10 0 6 -4 10 -10 10 -5 0
-10 -4 -10 -10z"/>
<path d="M4260 4994 c0 -12 42 -64 51 -64 5 0 9 11 9 24 0 19 -4 24 -20 21
-13 -2 -20 2 -20 11 0 8 -4 14 -10 14 -5 0 -10 -3 -10 -6z"/>
<path d="M4840 4949 c-69 -4 -170 -10 -225 -13 -55 -3 -103 -6 -107 -6 -3 0
-4 -9 -1 -20 4 -17 1 -19 -28 -15 -34 4 -50 20 -42 41 3 8 -2 11 -15 7 -15 -3
-21 -16 -25 -51 -3 -26 -2 -50 2 -55 4 -4 54 -3 112 3 96 9 312 19 437 20 l52
0 0 44 c0 54 2 53 -160 45z"/>
<path d="M4470 4940 c-8 -5 -10 -10 -5 -10 6 0 17 5 25 10 8 5 11 10 5 10 -5
0 -17 -5 -25 -10z"/>
<path d="M3835 4920 c-3 -5 -1 -10 4 -10 6 0 11 5 11 10 0 6 -2 10 -4 10 -3 0
-8 -4 -11 -10z"/>
<path d="M3865 4910 c4 -6 11 -8 16 -5 14 9 11 15 -7 15 -8 0 -12 -5 -9 -10z"/>
<path d="M3330 4876 c0 -2 7 -7 16 -10 8 -3 12 -2 9 4 -6 10 -25 14 -25 6z"/>
<path d="M4668 4793 c6 -2 18 -2 25 0 6 3 1 5 -13 5 -14 0 -19 -2 -12 -5z"/>
<path d="M4728 4793 c7 -3 16 -2 19 1 4 3 -2 6 -13 5 -11 0 -14 -3 -6 -6z"/>
<path d="M4886 4382 c-8 -14 8 -24 27 -16 8 3 18 0 22 -6 5 -8 11 -8 21 1 7 6
21 9 29 5 8 -3 15 -1 15 4 0 6 -15 10 -32 10 -18 0 -43 3 -54 6 -12 3 -25 1
-28 -4z"/>
<path d="M4850 4349 c0 -5 5 -7 10 -4 6 3 10 8 10 11 0 2 -4 4 -10 4 -5 0 -10
-5 -10 -11z"/>
<path d="M4906 4324 c-9 -24 -7 -28 9 -14 17 14 20 30 6 30 -5 0 -12 -7 -15
-16z"/>
<path d="M4778 4289 c-20 -33 -23 -59 -9 -59 12 0 23 29 15 41 -3 5 2 9 10 9
9 0 16 9 16 20 0 29 -12 25 -32 -11z"/>
<path d="M4980 4311 c0 -6 5 -13 10 -16 6 -3 10 1 10 9 0 9 -4 16 -10 16 -5 0
-10 -4 -10 -9z"/>
<path d="M4823 4294 c-3 -11 -11 -22 -17 -26 -24 -16 2 -15 36 2 22 11 41 14
50 9 23 -15 34 -10 12 5 -37 26 -73 30 -81 10z"/>
<path d="M4850 3886 c0 -2 7 -7 16 -10 8 -3 12 -2 9 4 -6 10 -25 14 -25 6z"/>
<path d="M4814 3811 c20 -22 26 -25 26 -13 0 4 -10 13 -22 21 -23 14 -23 14
-4 -8z"/>
<path d="M2198 3813 c6 -2 18 -2 25 0 6 3 1 5 -13 5 -14 0 -19 -2 -12 -5z"/>
<path d="M4916 3796 c10 -8 21 -12 24 -10 5 6 -21 24 -34 24 -6 0 -1 -6 10
-14z"/>
<path d="M4820 3750 c-8 -5 -12 -12 -9 -15 4 -3 12 1 19 10 14 17 11 19 -10 5z"/>
<path d="M2520 3746 c0 -2 7 -6 15 -10 8 -3 15 -1 15 4 0 6 -7 10 -15 10 -8 0
-15 -2 -15 -4z"/>
<path d="M2107 3639 c-4 -15 -11 -20 -21 -16 -9 4 -16 3 -16 -1 0 -10 -86 -44
-107 -42 -46 5 -55 1 -51 -25 3 -16 1 -25 -7 -25 -14 0 -68 -40 -62 -46 5 -5
110 45 191 91 42 23 84 37 138 45 90 14 103 27 23 22 -35 -3 -55 0 -55 7 0 20
-28 11 -33 -10z"/>
<path d="M3010 3549 c0 -32 8 -50 35 -83 48 -59 74 -122 75 -181 0 -27 4 -57
9 -65 6 -8 7 -18 4 -24 -4 -5 -10 -1 -13 10 -5 13 -9 4 -15 -33 -4 -29 -11
-53 -16 -53 -4 0 -6 -6 -3 -14 3 -8 -5 -24 -18 -36 -14 -13 -17 -20 -8 -18 8
2 21 9 29 17 23 21 26 -5 5 -37 -19 -28 -23 -41 -17 -55 4 -7 37 21 39 32 0 3
5 22 11 42 7 22 8 54 3 80 -9 47 -7 55 9 44 6 -3 11 -40 11 -86 0 -45 -4 -78
-9 -75 -5 4 -7 -2 -4 -13 3 -12 -3 -24 -17 -34 -14 -10 -19 -20 -14 -28 5 -9
2 -11 -9 -6 -9 3 -18 0 -21 -8 -4 -13 -67 -47 -89 -49 -4 -1 -12 -8 -17 -16
-8 -13 -10 -12 -10 3 0 9 -5 17 -11 17 -5 0 -9 -10 -7 -22 2 -15 -2 -23 -12
-23 -8 0 -21 -4 -27 -8 -7 -5 -13 -6 -13 -2 0 3 -10 1 -21 -6 -15 -8 -19 -8
-15 0 10 16 -10 13 -24 -4 -6 -8 -9 -19 -5 -25 3 -5 1 -10 -5 -10 -6 0 -9 -4
-6 -9 4 -5 -3 -7 -14 -4 -16 4 -18 8 -9 19 7 8 9 18 5 22 -12 12 -37 -30 -26
-43 5 -7 6 -16 2 -20 -4 -5 2 -5 12 -1 16 5 17 4 6 -9 -7 -8 -17 -12 -22 -9
-5 3 -18 -2 -29 -12 -14 -13 -19 -14 -19 -4 0 22 -18 -1 -26 -34 -6 -26 -5
-27 15 -17 17 9 21 9 19 -1 -2 -7 6 -13 17 -13 11 0 20 -5 20 -12 0 -6 4 -15
9 -20 5 -5 7 2 3 15 -7 30 31 49 50 24 7 -8 16 -12 20 -8 4 4 1 11 -6 15 -9 6
-10 11 -3 15 6 4 9 14 6 24 -4 14 -3 13 7 -2 11 -18 12 -18 30 5 12 15 17 17
13 7 -3 -10 -1 -18 5 -18 11 0 15 19 12 50 -2 13 0 13 8 1 5 -8 7 -20 4 -28
-6 -16 11 -17 39 -2 15 8 19 8 14 0 -4 -6 -3 -11 3 -11 6 0 8 -7 5 -15 -4 -8
-1 -15 7 -15 19 0 1 -13 -24 -17 -25 -4 -44 -20 -34 -29 4 -4 13 -1 22 6 8 7
15 8 15 2 0 -5 -7 -12 -15 -16 -8 -3 -15 -12 -15 -19 0 -8 -9 -22 -20 -32 -22
-20 -28 -51 -7 -39 9 6 9 5 0 -8 -7 -8 -12 -17 -10 -19 1 -2 -4 3 -12 11 -12
13 -13 12 -8 -8 3 -12 2 -20 -3 -17 -9 6 -35 -23 -27 -31 3 -3 14 0 26 7 25
16 39 5 18 -15 -8 -8 -17 -12 -21 -9 -3 4 -6 1 -6 -6 0 -8 6 -11 16 -7 29 11
38 -6 13 -25 l-24 -18 23 4 c14 2 22 -1 22 -11 0 -8 5 -14 10 -14 13 0 13 17
-1 25 -7 5 -3 15 10 29 23 24 24 65 2 82 -12 9 -11 12 2 17 10 4 16 2 14 -5
-1 -6 4 -13 11 -15 6 -3 12 0 12 6 0 6 7 11 15 11 18 0 20 -17 3 -23 -10 -4
-10 -7 0 -18 10 -11 12 -10 12 3 0 9 4 18 10 20 5 2 0 14 -10 28 -17 21 -21
23 -30 10 -5 -8 -10 -10 -10 -5 0 12 20 43 20 31 0 -5 6 -3 14 3 12 10 13 8 9
-10 -4 -15 -3 -20 5 -15 8 4 12 0 12 -11 0 -11 5 -24 11 -30 13 -13 3 -36 -12
-28 -5 4 -9 -1 -9 -11 0 -15 2 -15 28 2 19 12 23 13 15 3 -9 -11 -9 -19 -2
-26 7 -7 2 -10 -16 -8 -17 2 -25 -1 -22 -8 2 -7 11 -11 20 -11 9 1 13 -4 10
-12 -3 -8 -9 -14 -14 -14 -5 0 -9 -4 -9 -9 0 -5 10 -7 23 -4 l22 5 -23 -21
c-13 -11 -20 -26 -17 -32 6 -8 10 -7 16 2 4 7 11 10 15 6 4 -4 -1 -17 -12 -28
-14 -16 -15 -23 -6 -26 13 -5 17 -33 4 -33 -4 0 -13 5 -20 12 -7 7 -12 9 -12
4 0 -4 7 -14 15 -22 21 -22 19 -33 -6 -27 -18 5 -20 3 -15 -15 4 -12 2 -31 -5
-43 -11 -21 -12 -21 -24 -5 -12 16 -14 16 -23 1 -10 -19 -22 -18 -38 3 -7 9
-13 11 -17 5 -4 -6 2 -18 12 -27 15 -14 24 -15 40 -6 24 12 26 8 10 -21 -8
-16 -7 -23 7 -33 16 -12 16 -14 -2 -24 -16 -10 -17 -13 -4 -22 12 -8 13 -12 1
-19 -10 -6 -10 -13 -3 -28 16 -29 0 -48 -28 -33 -12 6 -24 9 -27 6 -8 -7 7
-27 17 -21 4 3 10 -4 13 -15 3 -13 0 -20 -9 -20 -17 0 -19 -26 -2 -36 8 -5 6
-11 -7 -20 -19 -14 -14 -44 8 -44 12 0 13 -10 5 -52 -13 -70 -23 -87 -23 -39
0 22 3 37 7 35 5 -3 8 -1 8 5 0 17 -23 61 -32 61 -13 0 -9 -28 5 -33 8 -4 9
-8 2 -14 -6 -4 -10 -33 -10 -63 0 -39 -4 -54 -13 -52 -7 1 -17 -10 -22 -24 -6
-15 -13 -24 -17 -20 -3 3 -12 1 -19 -5 -15 -13 -37 -2 -28 13 4 6 1 9 -6 6
-20 -6 -24 -28 -6 -28 9 0 15 -3 15 -7 -3 -20 2 -27 10 -14 13 20 44 24 37 5
-4 -9 3 -18 16 -23 13 -4 17 -10 11 -14 -6 -4 -9 -16 -6 -26 3 -10 0 -22 -6
-25 -7 -5 -7 -13 1 -26 11 -16 9 -22 -7 -34 -26 -20 -45 -20 -45 0 0 8 -5 12
-11 9 -7 -5 -4 -14 7 -26 13 -14 20 -16 31 -8 7 6 13 8 13 4 0 -4 7 -2 15 5
13 10 15 9 15 -9 0 -11 5 -21 12 -21 6 0 9 -3 5 -6 -3 -3 -2 -17 3 -30 6 -16
6 -24 -1 -24 -6 0 -7 -5 -4 -10 4 -6 11 -8 16 -5 5 4 9 -5 9 -19 0 -14 4 -26
9 -26 13 0 22 -43 11 -54 -17 -17 -11 -29 6 -15 15 12 16 10 9 -20 -6 -28 -5
-33 8 -28 12 4 14 2 10 -10 -5 -12 -2 -15 8 -11 11 4 16 -3 17 -29 2 -21 -1
-32 -7 -28 -6 3 -7 13 -4 23 6 15 5 15 -9 2 -8 -9 -15 -27 -14 -40 1 -23 -2
-25 -39 -23 -70 4 -137 24 -131 39 3 7 1 16 -4 19 -6 4 -10 -1 -10 -9 0 -9 -3
-16 -6 -16 -9 0 -98 21 -114 27 -8 3 -25 5 -37 4 -13 -1 -23 3 -23 9 0 7 -7 9
-16 6 -9 -4 -23 -1 -32 6 -8 7 -20 13 -26 13 -6 1 -23 5 -39 9 -22 7 -25 11
-16 22 23 28 -1 27 -27 -1 -22 -24 -29 -27 -45 -17 -10 7 -19 8 -19 3 0 -6 13
-18 30 -27 35 -21 44 -40 24 -48 -9 -4 -12 -2 -8 5 4 6 0 15 -7 20 -8 5 -17 3
-21 -4 -6 -9 -8 -9 -8 1 0 8 -8 10 -25 6 -14 -3 -25 -2 -25 4 0 5 -7 12 -14
15 -11 4 -13 1 -9 -11 4 -10 2 -13 -3 -9 -12 11 -16 87 -4 87 6 0 10 5 10 10
0 6 -11 10 -25 10 -16 0 -25 -6 -25 -16 0 -8 -4 -12 -10 -9 -5 3 -10 1 -10 -4
0 -6 5 -11 12 -11 6 0 3 -8 -8 -19 -10 -10 -23 -16 -28 -13 -5 3 -6 -3 -3 -13
8 -19 -37 -70 -53 -60 -13 8 -16 -27 -5 -62 5 -18 16 -33 23 -33 7 0 16 -8 19
-18 4 -9 16 -25 28 -34 17 -14 18 -20 7 -37 -10 -17 -10 -21 2 -21 7 0 19 -7
26 -15 7 -8 17 -12 22 -9 6 4 5 10 -3 16 -11 8 -11 11 -1 15 10 4 10 8 1 19
-7 8 -9 31 -5 61 3 27 7 58 7 70 1 28 33 58 50 47 12 -7 30 -8 113 -3 18 1 35
-6 44 -17 10 -14 16 -16 19 -6 4 10 9 8 19 -5 8 -11 13 -13 14 -5 0 8 12 11
38 9 22 -2 36 -8 34 -15 -1 -7 2 -12 8 -12 5 0 10 4 10 9 0 12 63 9 72 -4 5
-6 8 -5 8 3 0 7 5 10 12 6 6 -4 31 -6 55 -5 25 0 49 -2 55 -5 5 -3 33 -7 62
-9 29 -1 62 -8 74 -14 35 -18 41 -14 31 21 -13 48 -9 60 5 13 7 -21 12 -51 11
-67 -1 -15 1 -25 5 -23 4 2 11 -16 17 -40 6 -24 7 -42 3 -40 -4 3 -10 18 -13
33 -5 26 -9 29 -41 26 -22 -1 -36 2 -36 9 0 7 -5 4 -11 -6 -6 -9 -14 -15 -19
-12 -5 3 -23 -1 -40 -10 -17 -9 -35 -13 -41 -10 -5 4 -17 1 -25 -6 -13 -10
-17 -10 -25 2 -8 13 -13 6 -10 -14 1 -5 -3 -6 -9 -2 -5 3 -25 -5 -42 -18 -18
-13 -41 -22 -50 -20 -25 6 -23 -19 2 -35 21 -13 45 -8 36 7 -3 4 1 8 9 8 8 0
15 -5 15 -10 0 -5 6 -4 14 2 11 10 20 10 37 1 17 -9 20 -9 14 0 -10 16 16 32
31 19 8 -7 14 -6 19 1 3 5 3 10 -2 10 -4 0 -1 4 7 10 9 5 19 5 27 -2 9 -7 13
-7 13 2 0 8 8 10 24 6 15 -4 26 -1 29 7 4 9 7 9 18 -1 11 -10 11 -14 1 -21
-10 -6 -10 -10 2 -20 13 -11 22 -9 53 10 21 13 50 31 65 39 14 8 68 62 119
120 50 58 110 125 132 149 l40 44 21 -25 c12 -14 34 -42 50 -62 20 -25 35 -34
45 -30 36 15 60 11 80 -12 11 -13 16 -24 11 -24 -6 0 -10 -5 -10 -11 0 -7 10
-9 25 -5 20 5 27 2 37 -19 6 -14 17 -25 24 -25 7 0 29 -13 47 -30 30 -26 36
-40 47 -105 7 -41 14 -75 16 -75 1 0 15 5 30 10 23 9 31 7 51 -11 12 -13 23
-32 23 -44 0 -13 3 -36 6 -53 5 -23 10 -29 25 -25 31 9 59 -24 59 -70 0 -29 3
-38 14 -34 17 7 36 -14 64 -66 11 -21 23 -38 26 -38 19 2 24 -1 28 -17 3 -11
0 -19 -7 -19 -7 0 -11 5 -9 12 3 6 -6 11 -18 12 -13 1 -18 -1 -12 -5 6 -4 21
-57 33 -118 43 -215 31 -239 -108 -215 -120 21 -285 18 -391 -8 -52 -13 -104
-27 -115 -31 -11 -5 143 -9 343 -9 364 -1 368 -1 363 32 0 4 4 7 9 7 6 0 10
-9 10 -20 0 -20 7 -20 395 -20 l395 0 0 655 c0 646 0 656 -21 697 -11 22 -23
51 -25 64 -4 20 0 24 21 24 17 0 25 5 25 18 0 12 -8 17 -25 17 -14 0 -25 -4
-25 -10 0 -5 -7 1 -16 13 -13 19 -18 21 -31 11 -13 -11 -12 -15 8 -30 l22 -17
-21 -11 c-18 -10 -25 -8 -41 6 -29 29 -41 79 -41 176 0 78 2 88 15 77 8 -7 15
-18 15 -25 0 -28 32 -75 51 -75 11 0 17 -5 14 -10 -3 -6 -17 -10 -31 -10 -36
0 -29 -18 9 -22 17 -2 32 -8 32 -15 0 -17 13 -27 41 -30 l24 -4 -1 311 c0 170
-2 310 -4 310 -2 0 -11 -25 -20 -55 -20 -63 -30 -68 -132 -68 -48 0 -63 -4
-66 -16 -2 -9 -7 2 -11 24 -8 43 -21 82 -42 132 -8 17 -14 36 -14 41 0 6 -11
23 -24 39 -13 15 -24 33 -24 38 -1 14 -65 94 -76 95 -5 0 -3 -6 3 -14 8 -10 9
-16 1 -21 -5 -3 -10 -1 -10 4 0 6 -5 11 -11 11 -5 0 -7 -5 -3 -12 4 -6 3 -8
-3 -5 -7 5 -8 20 -2 48 11 48 5 61 -15 33 -8 -10 -18 -16 -22 -11 -4 4 -2 7 4
7 15 0 8 49 -12 89 -19 35 -33 43 -16 9 11 -22 11 -22 -5 -3 -8 11 -13 25 -11
32 3 7 1 12 -3 10 -5 -1 -20 10 -34 26 -31 33 -23 36 11 5 l25 -23 -12 22 c-6
13 -20 27 -31 33 -11 6 -17 16 -14 25 6 14 -15 47 -65 104 -11 13 -21 28 -21
32 0 5 -6 17 -14 26 -8 10 -30 38 -48 63 -48 64 -123 117 -183 130 -27 6 -97
12 -155 12 -87 1 -96 3 -50 8 41 5 46 7 20 8 -25 2 -50 14 -84 42 -26 22 -51
40 -55 40 -3 0 2 -7 12 -14 24 -18 21 -29 -4 -15 -17 9 -24 8 -31 -2 -7 -10
-8 -8 -5 9 3 14 1 22 -6 20 -7 -1 -21 3 -33 9 -12 7 -39 13 -60 15 -21 1 -42
6 -45 11 -8 11 -100 50 -198 84 -61 22 -74 24 -82 12 -6 -10 -9 -10 -9 -1 0 6
-7 12 -16 12 -9 0 -31 16 -50 35 -27 29 -33 32 -36 17 -3 -9 -1 -27 4 -39 4
-14 4 -23 -2 -23 -9 0 -15 29 -11 58 1 8 -4 23 -12 35 -8 12 -17 34 -21 50 -3
15 -11 27 -16 27 -6 0 -10 8 -10 18 0 27 -105 191 -122 192 -5 0 -8 -18 -8
-41z m370 -499 c0 -5 -2 -10 -4 -10 -3 0 -8 5 -11 10 -3 6 -1 10 4 10 6 0 11
-4 11 -10z m440 -40 c13 -8 13 -10 -2 -10 -9 0 -20 5 -23 10 -8 13 5 13 25 0z
m-390 -16 c0 -2 -7 -4 -15 -4 -8 0 -15 4 -15 10 0 5 7 7 15 4 8 -4 15 -8 15
-10z m320 -4 c0 -5 -2 -10 -4 -10 -3 0 -8 5 -11 10 -3 6 -1 10 4 10 6 0 11 -4
11 -10z m-300 -51 c0 -6 -4 -7 -10 -4 -5 3 -10 11 -10 16 0 6 5 7 10 4 6 -3
10 -11 10 -16z m719 -63 c-3 -3 -11 5 -18 17 -13 21 -12 21 5 5 10 -10 16 -20
13 -22z m-659 -5 c0 -6 -9 -9 -20 -8 -11 1 -20 5 -20 9 0 4 9 8 20 8 11 0 20
-4 20 -9z m732 -28 c10 -9 18 -28 17 -42 0 -16 -3 -20 -6 -11 -3 8 -15 27 -25
43 -22 30 -14 36 14 10z m-815 -18 c-4 -8 -11 -15 -17 -15 -6 0 -6 7 2 20 14
22 24 19 15 -5z m47 4 c-3 -5 0 -17 7 -25 10 -12 10 -17 -1 -27 -10 -10 -12
-9 -7 5 3 10 2 20 -3 23 -6 4 -10 15 -10 26 0 11 5 17 10 14 6 -4 8 -11 4 -16z
m65 8 c-2 -1 -12 -9 -22 -16 -15 -12 -17 -12 -11 3 3 9 13 16 22 16 8 0 13 -1
11 -3z m11 -38 c0 -6 -4 -7 -10 -4 -5 3 -10 11 -10 16 0 6 5 7 10 4 6 -3 10
-11 10 -16z m-518 -34 c2 3 5 -1 5 -9 0 -8 -8 -13 -18 -11 -10 2 -21 0 -24 -6
-8 -12 -25 -12 -25 1 0 6 5 9 12 8 6 -2 14 5 16 15 3 16 0 18 -20 12 -20 -7
-21 -6 -9 9 13 15 16 15 36 -4 12 -11 24 -18 27 -15z m-79 1 c4 -10 1 -13 -8
-9 -8 3 -12 9 -9 14 7 12 11 11 17 -5z m117 10 c0 -3 -4 -8 -10 -11 -5 -3 -10
-1 -10 4 0 6 5 11 10 11 6 0 10 -2 10 -4z m444 -31 c-4 -8 -8 -15 -10 -15 -2
0 -4 7 -4 15 0 8 4 15 10 15 5 0 7 -7 4 -15z m55 -22 c0 -17 -3 -22 -6 -13 -4
8 -13 20 -22 27 -14 11 -13 12 7 13 18 0 22 -5 21 -27z m-33 -40 c-3 -4 -1
-12 6 -20 8 -10 8 -12 -4 -8 -21 8 -47 -23 -29 -35 10 -5 10 -9 2 -15 -7 -3
-9 -15 -6 -26 5 -15 1 -19 -18 -19 -21 0 -24 4 -20 23 3 12 10 28 16 35 5 6 6
12 2 12 -4 0 -2 7 5 15 7 8 10 25 6 39 -4 18 -2 25 11 28 18 4 40 -19 29 -29z
m-133 -50 c-5 -12 -7 -12 -14 -1 -13 20 -11 28 5 22 8 -3 12 -12 9 -21z m161
-28 c11 -8 17 -15 13 -15 -4 0 -3 -9 3 -20 18 -33 -12 -14 -32 20 -19 33 -14
37 16 15z m-460 -21 c3 -8 2 -12 -4 -9 -6 3 -10 10 -10 16 0 14 7 11 14 -7z
m-143 -18 c-6 -7 -8 -16 -4 -19 3 -4 1 -7 -6 -7 -8 0 -11 6 -7 16 3 9 6 20 6
25 0 6 5 7 10 4 8 -5 8 -11 1 -19z m459 5 c0 -5 -9 -19 -20 -32 -14 -17 -18
-19 -14 -6 3 9 2 17 -3 17 -5 0 -10 7 -10 15 0 9 10 15 24 15 13 0 23 -4 23
-9z m120 -11 c-8 -5 -2 -10 19 -15 18 -4 31 -13 31 -22 0 -11 -4 -13 -12 -6
-21 17 -59 22 -84 13 -14 -6 -24 -6 -24 -1 0 5 14 14 30 20 17 5 30 15 30 21
0 6 5 8 11 4 8 -5 8 -9 -1 -14z m924 -95 c5 -22 4 -26 -4 -15 -5 8 -10 24 -10
34 0 26 6 18 14 -19z m-1514 -17 c0 -12 -29 -22 -38 -14 -3 4 0 11 7 16 8 5
11 16 7 26 -6 18 -5 17 9 0 8 -11 15 -24 15 -28z m520 -29 c0 -20 -88 -123
-132 -154 -44 -32 -47 -33 -32 -10 9 14 20 25 25 25 4 0 25 15 45 33 42 36 77
106 68 134 -5 17 -4 17 10 -1 9 -11 16 -23 16 -27z m1020 -28 c0 -12 -20 -25
-27 -18 -7 7 6 27 18 27 5 0 9 -4 9 -9z m40 -56 c-6 -15 -13 -25 -16 -23 -2 3
1 17 7 32 16 34 23 27 9 -9z m-20 17 c0 -13 -12 -22 -22 -16 -10 6 -1 24 13
24 5 0 9 -4 9 -8z m-52 -27 c-3 -3 -9 2 -12 12 -6 14 -5 15 5 6 7 -7 10 -15 7
-18z m-1238 6 c0 -5 -9 -7 -20 -4 -11 3 -20 7 -20 9 0 2 9 4 20 4 11 0 20 -4
20 -9z m1290 -39 c0 -5 -7 -17 -15 -28 -14 -18 -14 -17 -4 9 12 27 19 34 19
19z m55 -21 c-6 -5 -25 10 -25 20 0 5 6 4 14 -3 8 -7 12 -15 11 -17z m-168
-88 c-11 -10 -26 8 -20 23 5 15 7 14 15 -1 6 -9 7 -19 5 -22z m-1147 -13 c-12
-16 -24 -30 -26 -30 -3 0 4 14 16 30 12 17 24 30 26 30 3 0 -4 -13 -16 -30z
m1476 -70 c0 -11 -4 -20 -8 -20 -4 0 -8 9 -8 20 0 11 4 20 8 20 4 0 8 -9 8
-20z m114 -381 c0 -5 -4 -9 -10 -9 -5 0 -10 7 -10 16 0 8 5 12 10 9 6 -3 10
-10 10 -16z m-1445 -109 c3 -5 1 -10 -4 -10 -6 0 -11 5 -11 10 0 6 2 10 4 10
3 0 8 -4 11 -10z m-505 -14 c0 -2 -7 -9 -15 -16 -12 -10 -15 -10 -15 4 0 9 7
16 15 16 8 0 15 -2 15 -4z m511 -148 c11 -21 11 -22 -4 -9 -10 7 -17 17 -17
22 0 15 9 10 21 -13z m376 6 c-15 -8 -40 -14 -55 -12 -23 3 -21 5 18 15 62 15
69 15 37 -3z m-97 -15 c0 -14 -17 -10 -23 5 -4 10 -1 13 9 9 7 -3 14 -9 14
-14z m-126 0 c-3 -5 2 -6 10 -3 9 3 16 1 16 -5 0 -6 -11 -11 -24 -11 -14 0
-27 -4 -30 -9 -3 -4 -18 -6 -32 -3 -19 3 -25 1 -20 -7 4 -6 1 -11 -7 -11 -10
0 -14 -9 -12 -30 1 -17 5 -33 9 -37 11 -11 6 -23 -10 -23 -8 0 -12 5 -9 10 3
6 -1 17 -9 25 -8 9 -13 22 -10 29 3 8 1 17 -5 21 -20 11 -12 33 9 28 12 -3 20
0 20 7 0 7 6 10 14 7 8 -3 21 0 30 6 19 14 68 19 60 6z m66 -9 c0 -5 -4 -10
-9 -10 -6 0 -13 5 -16 10 -3 6 1 10 9 10 9 0 16 -4 16 -10z m157 -26 c2 -6 -6
-14 -19 -17 -27 -7 -32 -3 -24 18 6 18 37 17 43 -1z m1148 -4 c22 -8 25 -13
16 -24 -7 -8 -10 -20 -9 -27 2 -8 -3 -13 -11 -11 -7 1 -19 -5 -27 -15 -13 -17
-13 -17 -14 4 0 12 6 24 13 27 8 3 7 8 -5 16 -10 6 -18 16 -18 21 0 6 5 7 10
4 6 -3 10 -1 10 4 0 13 2 13 35 1z m-1546 -21 c-22 -13 -31 -11 -17 5 7 8 17
12 22 9 4 -3 2 -9 -5 -14z m316 11 c3 -5 1 -10 -4 -10 -6 0 -11 5 -11 10 0 6
2 10 4 10 3 0 8 -4 11 -10z m-96 -21 c-20 -12 -47 -11 -55 3 -5 7 -2 9 8 6 8
-4 21 -2 28 2 8 5 18 6 23 3 5 -3 3 -9 -4 -14z m-82 -12 c-6 -20 -27 -19 -27
2 0 14 5 19 15 14 9 -3 14 -10 12 -16z m-117 -11 c0 -21 -21 -31 -30 -15 -5 7
-6 17 -4 21 9 14 34 9 34 -6z m379 10 c-2 -2 -17 -6 -34 -10 -22 -5 -26 -4
-15 4 14 9 59 15 49 6z m-439 -37 c0 -5 -4 -9 -10 -9 -5 0 -10 7 -10 16 0 8 5
12 10 9 6 -3 10 -10 10 -16z m-56 -10 c-3 -5 -10 -7 -15 -3 -5 3 -7 10 -3 15
3 5 10 7 15 3 5 -3 7 -10 3 -15z m236 11 c0 -5 -7 -10 -16 -10 -8 0 -12 5 -9
10 3 6 10 10 16 10 5 0 9 -4 9 -10z m-280 -21 c0 -5 -7 -9 -15 -9 -15 0 -20
12 -9 23 8 8 24 -1 24 -14z m185 1 c-3 -5 -18 -10 -33 -9 -24 0 -25 1 -7 9 28
12 47 12 40 0z m-150 -40 c-28 -12 -55 -12 -55 0 0 6 17 10 38 9 30 0 33 -2
17 -9z m469 -6 c4 -10 1 -14 -6 -12 -15 5 -23 28 -10 28 5 0 13 -7 16 -16z
m-724 -8 c0 -8 -8 -14 -18 -13 -10 0 -19 7 -19 14 0 7 9 13 19 13 10 0 18 -6
18 -14z m175 -6 c-3 -5 -14 -10 -23 -9 -14 0 -13 2 3 9 27 11 27 11 20 0z
m-126 -34 c-10 -8 -82 -15 -73 -6 5 4 23 10 39 12 30 3 42 1 34 -6z m401 -6
c0 -12 -8 -12 -35 0 -18 8 -17 9 8 9 15 1 27 -3 27 -9z m-473 -62 c-3 -8 -6
-5 -6 6 -1 11 2 17 5 13 3 -3 4 -12 1 -19z m580 0 c-3 -8 -6 -5 -6 6 -1 11 2
17 5 13 3 -3 4 -12 1 -19z m83 -12 c0 -9 -30 -14 -35 -6 -4 6 3 10 14 10 12 0
21 -2 21 -4z m1197 -28 c-3 -8 -6 -5 -6 6 -1 11 2 17 5 13 3 -3 4 -12 1 -19z
m0 -55 c-3 -10 -5 -4 -5 12 0 17 2 24 5 18 2 -7 2 -21 0 -30z m-1252 7 c3 -5
1 -10 -4 -10 -6 0 -11 5 -11 10 0 6 2 10 4 10 3 0 8 -4 11 -10z m-1345 -41 c0
-5 -4 -9 -9 -9 -5 0 -7 -9 -4 -20 3 -12 0 -20 -7 -20 -7 0 -10 6 -7 14 3 7 1
18 -5 24 -6 6 -7 15 -4 21 7 11 36 4 36 -10z m2618 -24 c15 -33 15 -55 1 -55
-6 0 -9 6 -6 14 3 8 -1 20 -9 26 -15 13 -19 40 -6 40 5 0 14 -11 20 -25z
m-1115 -7 c9 -5 17 -13 17 -19 0 -6 -10 -3 -22 5 -12 9 -34 16 -48 17 -14 0
-34 5 -45 10 -13 6 -4 7 30 3 28 -4 58 -11 68 -16z m1197 -119 c0 -4 -7 -10
-16 -13 -8 -3 -12 -10 -9 -16 9 -15 -2 -12 -19 6 -24 23 -19 33 14 31 16 -1
30 -5 30 -8z m-887 -374 c31 -29 43 -46 36 -51 -8 -4 -9 -3 -5 4 4 7 3 12 -1
12 -5 0 -29 18 -53 40 -24 22 -40 40 -35 40 6 -1 31 -21 58 -45z m130 -145
c37 -41 60 -80 47 -80 -5 0 -11 8 -14 18 -3 9 -25 38 -48 64 -24 26 -49 57
-56 70 -10 17 -6 15 13 -7 15 -16 41 -46 58 -65z m94 -12 c-3 -8 -6 -5 -6 6
-1 11 2 17 5 13 3 -3 4 -12 1 -19z m-83 -56 c3 -5 -1 -9 -9 -9 -8 0 -15 4 -15
9 0 4 4 8 9 8 6 0 12 -4 15 -8z m116 -112 c9 -16 8 -18 -5 -14 -8 4 -15 12
-15 20 0 20 7 17 20 -6z m-20 -33 c0 -9 -12 -14 -30 -15 -32 -1 -41 14 -12 21
32 9 42 7 42 -6z"/>
<path d="M1795 3470 c-3 -6 1 -7 9 -4 18 7 21 14 7 14 -6 0 -13 -4 -16 -10z"/>
<path d="M2860 3450 c-5 -10 -6 -20 -3 -24 3 -3 -3 -6 -14 -6 -12 0 -23 4 -25
9 -1 4 -13 11 -25 15 l-22 7 1 -173 c1 -95 -2 -201 -7 -235 -5 -43 -3 -63 4
-63 16 0 112 82 129 110 12 21 12 22 0 8 -11 -13 -17 -15 -26 -6 -9 9 -12 9
-12 -2 0 -7 -3 -11 -6 -8 -3 4 -1 16 6 27 7 15 8 27 1 39 -7 10 -11 12 -11 4
0 -7 -5 -10 -11 -6 -7 4 -2 15 15 31 19 18 25 30 20 45 -4 15 -3 18 6 13 9 -5
11 -4 6 3 -4 6 -2 19 4 29 21 37 70 154 70 167 0 36 -83 49 -100 16z m-7 -381
c4 -3 2 -11 -5 -17 -10 -8 -13 -5 -14 15 -1 13 1 21 5 16 3 -4 10 -10 14 -14z"/>
<path d="M1945 3325 c-27 -7 -68 -18 -89 -24 -21 -5 -42 -14 -45 -19 -3 -5
-28 -20 -54 -32 -26 -12 -46 -25 -43 -27 2 -2 24 4 48 15 23 11 79 31 123 45
77 24 84 25 147 12 89 -19 138 -24 138 -14 0 13 98 0 173 -23 37 -11 71 -18
74 -14 12 12 -13 41 -38 44 -13 2 -32 10 -42 17 -11 8 -25 11 -32 9 -7 -3 -27
2 -44 10 -38 20 -242 21 -316 1z"/>
<path d="M1411 3237 c-6 -16 -11 -38 -10 -50 0 -14 2 -17 6 -7 2 8 9 25 15 37
6 11 8 27 5 35 -3 8 -9 2 -16 -15z"/>
<path d="M1900 3106 c-19 -8 -53 -22 -75 -32 -22 -10 -44 -17 -49 -15 -5 1 -3
-6 5 -15 12 -16 12 -17 -3 -12 -10 4 -19 1 -23 -10 -3 -9 -1 -18 4 -20 6 -2
11 -8 11 -14 0 -6 -7 -8 -15 -5 -19 8 -29 -9 -12 -20 8 -4 19 -17 25 -29 9
-16 27 -24 81 -32 38 -7 86 -12 107 -12 31 0 35 2 24 15 -7 8 -9 15 -4 15 5 0
4 4 -3 8 -10 6 -9 14 2 36 8 16 15 33 15 40 0 6 16 22 35 35 33 22 42 24 133
18 59 -3 120 -14 156 -26 64 -23 103 -26 126 -11 12 8 11 10 -7 10 -12 0 -24
4 -28 9 -3 6 -27 13 -53 17 -26 3 -56 15 -68 26 -17 15 -41 20 -120 23 -54 3
-128 7 -164 9 -40 3 -79 0 -100 -8z m159 -22 c2 -1 -12 -9 -30 -17 -19 -8 -49
-31 -68 -50 -19 -20 -38 -34 -43 -31 -13 8 34 84 62 99 21 11 65 11 79 -1z"/>
<path d="M4935 3040 c3 -5 19 -10 36 -10 16 0 29 5 29 10 0 6 -16 10 -36 10
-21 0 -33 -4 -29 -10z"/>
<path d="M2987 3000 c-20 -22 -33 -40 -29 -40 10 0 31 18 61 53 38 43 9 32
-32 -13z"/>
<path d="M2960 2939 c0 -5 5 -7 10 -4 6 3 10 8 10 11 0 2 -4 4 -10 4 -5 0 -10
-5 -10 -11z"/>
<path d="M4980 2915 c0 -8 5 -15 10 -15 6 0 10 7 10 15 0 8 -4 15 -10 15 -5 0
-10 -7 -10 -15z"/>
<path d="M2970 2910 c0 -5 5 -10 10 -10 6 0 10 5 10 10 0 6 -4 10 -10 10 -5 0
-10 -4 -10 -10z"/>
<path d="M2935 2900 c-3 -5 -1 -10 4 -10 6 0 11 5 11 10 0 6 -2 10 -4 10 -3 0
-8 -4 -11 -10z"/>
<path d="M2850 2880 c0 -5 5 -10 10 -10 6 0 10 5 10 10 0 6 -4 10 -10 10 -5 0
-10 -4 -10 -10z"/>
<path d="M4313 2873 c26 -2 68 -2 95 0 26 2 4 3 -48 3 -52 0 -74 -1 -47 -3z"/>
<path d="M4564 2873 c4 -4 78 -8 164 -8 86 -1 183 -5 215 -9 49 -8 57 -7 57 8
0 14 -23 16 -222 16 -122 0 -218 -3 -214 -7z"/>
<path d="M2860 2844 c0 -8 5 -12 10 -9 6 3 10 10 10 16 0 5 -4 9 -10 9 -5 0
-10 -7 -10 -16z"/>
<path d="M2890 2844 c0 -14 3 -14 15 -4 8 7 15 14 15 16 0 2 -7 4 -15 4 -8 0
-15 -7 -15 -16z"/>
<path d="M2775 2839 c-4 -6 -5 -13 -2 -16 7 -7 27 6 27 18 0 12 -17 12 -25 -2z"/>
<path d="M2814 2835 c-9 -22 1 -29 15 -11 8 10 9 16 1 21 -5 3 -13 -1 -16 -10z"/>
<path d="M2730 2805 c0 -16 6 -25 15 -25 8 0 15 5 15 10 0 6 -4 10 -10 10 -5
0 -7 7 -4 15 4 8 1 15 -5 15 -6 0 -11 -11 -11 -25z"/>
<path d="M2200 2806 c0 -9 84 -53 113 -60 16 -4 27 -2 27 4 0 5 -7 10 -15 10
-17 0 -20 21 -5 36 8 8 -9 11 -55 13 -36 1 -65 0 -65 -3z"/>
<path d="M2325 2780 c-3 -4 12 -11 33 -15 20 -3 48 -13 60 -22 26 -16 43 -10
23 10 -15 15 -110 37 -116 27z"/>
<path d="M2720 2762 c1 -17 19 -34 29 -28 18 12 13 32 -9 33 -11 1 -20 -1 -20
-5z"/>
<path d="M2955 2691 c-3 -5 -1 -12 5 -16 5 -3 10 1 10 9 0 18 -6 21 -15 7z"/>
<path d="M2270 2680 c0 -5 5 -10 10 -10 6 0 10 5 10 10 0 6 -4 10 -10 10 -5 0
-10 -4 -10 -10z"/>
<path d="M2860 2654 c0 -8 5 -12 10 -9 6 4 8 11 5 16 -9 14 -15 11 -15 -7z"/>
<path d="M2700 2636 c0 -9 5 -16 10 -16 6 0 10 4 10 9 0 6 -4 13 -10 16 -5 3
-10 -1 -10 -9z"/>
<path d="M2790 2636 c0 -9 5 -16 10 -16 6 0 10 4 10 9 0 6 -4 13 -10 16 -5 3
-10 -1 -10 -9z"/>
<path d="M2670 2631 c0 -6 5 -13 10 -16 6 -3 10 1 10 9 0 9 -4 16 -10 16 -5 0
-10 -4 -10 -9z"/>
<path d="M2907 2633 c-4 -3 -7 -11 -7 -17 0 -6 5 -5 12 2 6 6 9 14 7 17 -3 3
-9 2 -12 -2z"/>
<path d="M2597 2597 c-43 -19 -61 -37 -37 -37 22 0 9 -40 -15 -46 -14 -3 -25
-10 -25 -15 0 -5 7 -6 15 -3 15 6 16 5 20 -69 2 -39 10 -55 21 -44 4 4 2 13
-4 20 -7 8 -9 17 -5 21 4 4 8 28 8 54 0 40 3 47 20 45 10 -1 28 3 38 9 16 8
26 3 58 -31 22 -23 44 -41 50 -41 5 0 8 -4 4 -9 -6 -10 62 -47 70 -39 3 3 -11
18 -31 34 -20 16 -49 40 -65 53 -22 17 -28 29 -24 45 5 15 4 17 -3 7 -8 -11
-14 -5 -29 26 l-18 41 -48 -21z"/>
<path d="M2720 2610 c-8 -5 -11 -12 -8 -16 10 -9 38 3 38 16 0 12 -10 13 -30
0z"/>
<path d="M2670 2594 c8 -10 15 -20 16 -22 1 -2 5 1 8 7 4 5 -4 15 -16 22 -22
12 -22 11 -8 -7z"/>
<path d="M2805 2600 c-3 -5 -1 -10 4 -10 6 0 11 5 11 10 0 6 -2 10 -4 10 -3 0
-8 -4 -11 -10z"/>
<path d="M2910 2590 c0 -5 5 -10 10 -10 6 0 10 5 10 10 0 6 -4 10 -10 10 -5 0
-10 -4 -10 -10z"/>
<path d="M2740 2580 c0 -5 5 -10 10 -10 6 0 10 5 10 10 0 6 -4 10 -10 10 -5 0
-10 -4 -10 -10z"/>
<path d="M2770 2579 c0 -5 5 -7 10 -4 6 3 10 8 10 11 0 2 -4 4 -10 4 -5 0 -10
-5 -10 -11z"/>
<path d="M2855 2570 c3 -5 8 -10 11 -10 2 0 4 5 4 10 0 6 -5 10 -11 10 -5 0
-7 -4 -4 -10z"/>
<path d="M2520 2560 c0 -5 5 -10 11 -10 5 0 7 5 4 10 -3 6 -8 10 -11 10 -2 0
-4 -4 -4 -10z"/>
<path d="M2710 2559 c0 -5 5 -7 10 -4 6 3 10 8 10 11 0 2 -4 4 -10 4 -5 0 -10
-5 -10 -11z"/>
<path d="M2359 2531 c15 -27 31 -36 31 -17 0 8 -9 20 -21 26 -19 11 -20 10
-10 -9z"/>
<path d="M2402 2524 c2 -17 -2 -36 -9 -43 -8 -7 -11 -21 -8 -31 4 -14 1 -18
-12 -16 -10 2 -13 1 -8 -1 12 -4 16 -133 4 -133 -4 0 -5 -9 -2 -21 4 -12 0
-25 -8 -30 -12 -8 -12 -10 -1 -18 8 -4 14 -25 15 -45 1 -24 6 -36 15 -36 10 0
13 8 10 25 -3 14 -1 25 3 25 5 0 4 9 -3 20 -11 17 -10 22 1 29 9 6 10 11 2 15
-15 10 -14 46 2 46 9 0 9 2 0 8 -11 7 -11 60 1 80 3 6 2 13 -4 17 -6 3 -6 13
-1 23 24 48 28 79 13 98 -13 18 -14 17 -10 -12z"/>
<path d="M2636 2514 c-3 -8 -10 -12 -16 -9 -5 3 -10 0 -10 -9 0 -8 -6 -16 -12
-19 -15 -5 -6 -18 15 -21 19 -2 47 -25 47 -38 0 -5 -4 -6 -10 -3 -5 3 -10 1
-10 -5 0 -6 8 -10 17 -8 9 2 22 -7 28 -19 7 -13 15 -20 18 -16 4 3 7 -8 7 -25
0 -19 5 -32 13 -32 8 0 7 -3 -3 -10 -8 -5 -11 -13 -6 -17 4 -4 14 1 22 11 8
11 14 15 14 9 0 -7 -4 -15 -10 -18 -5 -3 -10 -13 -10 -21 0 -8 5 -14 10 -14 6
0 10 7 10 15 0 9 6 12 17 8 11 -5 13 -8 4 -11 -8 -3 -7 -8 5 -17 15 -11 21 -9
36 9 13 16 17 17 18 6 0 -16 -26 -44 -45 -48 -17 -4 -11 -25 8 -28 9 -1 15 1
12 6 -2 4 7 20 21 35 26 28 25 32 -13 73 -7 7 -13 18 -13 23 0 5 -4 9 -10 9
-5 0 -10 -7 -10 -15 0 -8 -5 -15 -10 -15 -7 0 -7 7 0 20 12 23 4 44 -12 34 -7
-5 -8 -2 -3 5 9 16 -14 61 -31 61 -7 0 -16 5 -20 12 -4 7 -3 8 4 4 8 -5 10 -2
6 8 -3 9 -12 16 -20 16 -8 0 -14 6 -14 14 0 7 -10 17 -22 21 -14 4 -18 8 -10
12 14 5 16 23 3 23 -5 0 -12 -7 -15 -16z m161 -236 c-3 -8 -6 -5 -6 6 -1 11 2
17 5 13 3 -3 4 -12 1 -19z"/>
<path d="M2350 2480 c0 -5 5 -10 11 -10 5 0 7 5 4 10 -3 6 -8 10 -11 10 -2 0
-4 -4 -4 -10z"/>
<path d="M2966 2471 c-4 -5 -2 -12 3 -15 5 -4 12 -2 15 3 4 5 2 12 -3 15 -5 4
-12 2 -15 -3z"/>
<path d="M2202 2448 c2 -6 10 -13 16 -14 7 -1 8 0 2 3 -5 2 -8 9 -4 14 3 5 0
9 -6 9 -7 0 -10 -5 -8 -12z"/>
<path d="M2525 2450 c-3 -5 -1 -10 4 -10 6 0 11 5 11 10 0 6 -2 10 -4 10 -3 0
-8 -4 -11 -10z"/>
<path d="M2980 2432 c-8 -9 -14 -20 -13 -24 2 -4 -4 -5 -12 -2 -10 4 -15 0
-15 -11 0 -12 5 -15 21 -10 14 5 19 3 15 -3 -11 -17 8 -21 29 -6 14 10 16 17
8 25 -6 6 -9 17 -7 24 8 20 -9 25 -26 7z m20 -38 c0 -8 -4 -12 -10 -9 -5 3
-10 10 -10 16 0 5 5 9 10 9 6 0 10 -7 10 -16z"/>
<path d="M2170 2429 c0 -5 5 -7 10 -4 6 3 10 8 10 11 0 2 -4 4 -10 4 -5 0 -10
-5 -10 -11z"/>
<path d="M4975 2410 c-4 -16 -4 -34 -1 -39 4 -5 1 -13 -5 -16 -5 -4 -8 -13 -5
-21 3 -7 -2 -17 -10 -22 -12 -7 -15 -21 -13 -61 2 -28 1 -51 -3 -51 -4 0 -5
-6 -2 -14 3 -8 19 -16 35 -18 l29 -5 0 139 c0 131 -10 175 -25 108z"/>
<path d="M2541 2374 c0 -11 3 -14 6 -6 3 7 2 16 -1 19 -3 4 -6 -2 -5 -13z"/>
<path d="M2660 2360 c0 -5 5 -10 10 -10 6 0 10 5 10 10 0 6 -4 10 -10 10 -5 0
-10 -4 -10 -10z"/>
<path d="M2630 2350 c0 -5 5 -10 10 -10 6 0 10 5 10 10 0 6 -4 10 -10 10 -5 0
-10 -4 -10 -10z"/>
<path d="M2950 2346 c0 -9 -4 -14 -10 -11 -16 10 -12 -4 8 -24 21 -22 67 -48
58 -32 -4 6 0 11 8 11 9 0 16 5 16 10 0 12 -10 13 -29 1 -9 -6 -20 -3 -32 7
-14 12 -15 18 -6 24 9 6 9 10 -1 20 -9 9 -12 8 -12 -6z"/>
<path d="M3000 2351 c0 -6 5 -13 10 -16 6 -3 10 1 10 9 0 9 -4 16 -10 16 -5 0
-10 -4 -10 -9z"/>
<path d="M2561 2334 c0 -11 3 -14 6 -6 3 7 2 16 -1 19 -3 4 -6 -2 -5 -13z"/>
<path d="M2685 2341 c-3 -5 -1 -12 5 -16 5 -3 10 1 10 9 0 18 -6 21 -15 7z"/>
<path d="M2817 2343 c-4 -3 -7 -11 -7 -17 0 -6 5 -5 12 2 6 6 9 14 7 17 -3 3
-9 2 -12 -2z"/>
<path d="M2430 2330 c0 -5 5 -10 11 -10 5 0 7 5 4 10 -3 6 -8 10 -11 10 -2 0
-4 -4 -4 -10z"/>
<path d="M2512 2328 c5 -15 28 -18 29 -3 0 6 -7 12 -17 13 -10 3 -15 -1 -12
-10z"/>
<path d="M2980 2330 c0 -5 5 -10 10 -10 6 0 10 5 10 10 0 6 -4 10 -10 10 -5 0
-10 -4 -10 -10z"/>
<path d="M2605 2320 c3 -5 8 -10 11 -10 2 0 4 5 4 10 0 6 -5 10 -11 10 -5 0
-7 -4 -4 -10z"/>
<path d="M2655 2300 c3 -5 8 -10 11 -10 2 0 4 5 4 10 0 6 -5 10 -11 10 -5 0
-7 -4 -4 -10z"/>
<path d="M2625 2290 c3 -5 8 -10 11 -10 2 0 4 5 4 10 0 6 -5 10 -11 10 -5 0
-7 -4 -4 -10z"/>
<path d="M2930 2290 c0 -5 5 -10 11 -10 5 0 7 5 4 10 -3 6 -8 10 -11 10 -2 0
-4 -4 -4 -10z"/>
<path d="M2335 2280 c-3 -5 -1 -10 4 -10 6 0 11 5 11 10 0 6 -2 10 -4 10 -3 0
-8 -4 -11 -10z"/>
<path d="M2540 2274 c0 -8 5 -12 10 -9 6 3 10 10 10 16 0 5 -4 9 -10 9 -5 0
-10 -7 -10 -16z"/>
<path d="M2676 2281 c-4 -5 -2 -12 3 -15 5 -4 12 -2 15 3 4 5 2 12 -3 15 -5 4
-12 2 -15 -3z"/>
<path d="M2860 2270 c0 -5 5 -10 10 -10 6 0 10 5 10 10 0 6 -4 10 -10 10 -5 0
-10 -4 -10 -10z"/>
<path d="M2583 2263 c-7 -2 -13 -9 -13 -15 0 -7 5 -7 13 1 8 6 17 8 20 4 4 -3
7 -1 7 5 0 13 -7 14 -27 5z"/>
<path d="M2445 2250 c-3 -5 -1 -10 4 -10 6 0 11 5 11 10 0 6 -2 10 -4 10 -3 0
-8 -4 -11 -10z"/>
<path d="M2885 2251 c-3 -5 -1 -12 5 -16 5 -3 10 1 10 9 0 18 -6 21 -15 7z"/>
<path d="M2165 2240 c3 -5 8 -10 11 -10 2 0 4 5 4 10 0 6 -5 10 -11 10 -5 0
-7 -4 -4 -10z"/>
<path d="M2306 2242 c-2 -4 4 -13 15 -20 22 -14 25 -7 5 14 -8 8 -17 11 -20 6z"/>
<path d="M2620 2240 c0 -5 5 -10 11 -10 5 0 7 5 4 10 -3 6 -8 10 -11 10 -2 0
-4 -4 -4 -10z"/>
<path d="M2700 2236 c0 -9 5 -16 10 -16 6 0 10 4 10 9 0 6 -4 13 -10 16 -5 3
-10 -1 -10 -9z"/>
<path d="M2987 2244 c-9 -10 2 -24 18 -24 9 0 12 6 9 15 -6 16 -17 19 -27 9z"/>
<path d="M2750 2223 c0 -8 5 -13 12 -11 18 6 21 25 3 25 -8 0 -15 -7 -15 -14z"/>
<path d="M2425 2220 c3 -5 8 -10 11 -10 2 0 4 5 4 10 0 6 -5 10 -11 10 -5 0
-7 -4 -4 -10z"/>
<path d="M2670 2220 c0 -5 5 -10 10 -10 6 0 10 5 10 10 0 6 -4 10 -10 10 -5 0
-10 -4 -10 -10z"/>
<path d="M2855 2220 c-8 -13 4 -32 16 -25 5 4 9 -1 9 -9 0 -9 5 -16 10 -16 16
0 12 18 -10 40 -11 11 -22 15 -25 10z"/>
<path d="M2590 2210 c0 -5 5 -10 11 -10 5 0 7 5 4 10 -3 6 -8 10 -11 10 -2 0
-4 -4 -4 -10z"/>
<path d="M2725 2210 c-3 -5 -1 -10 4 -10 6 0 11 5 11 10 0 6 -2 10 -4 10 -3 0
-8 -4 -11 -10z"/>
<path d="M2828 2214 c-3 -5 -2 -20 2 -34 6 -21 8 -22 14 -8 8 18 -8 57 -16 42z"/>
<path d="M2910 2212 c0 -21 26 -42 52 -41 l23 0 -24 10 c-13 5 -30 17 -37 27
-9 12 -13 13 -14 4z"/>
<path d="M2565 2200 c-3 -5 -1 -10 4 -10 6 0 11 5 11 10 0 6 -2 10 -4 10 -3 0
-8 -4 -11 -10z"/>
<path d="M2960 2200 c0 -5 4 -10 9 -10 6 0 13 5 16 10 3 6 -1 10 -9 10 -9 0
-16 -4 -16 -10z"/>
<path d="M2445 2190 c3 -5 8 -10 11 -10 2 0 4 5 4 10 0 6 -5 10 -11 10 -5 0
-7 -4 -4 -10z"/>
<path d="M2645 2190 c3 -5 8 -10 11 -10 2 0 4 5 4 10 0 6 -5 10 -11 10 -5 0
-7 -4 -4 -10z"/>
<path d="M2345 2180 c3 -5 8 -10 11 -10 2 0 4 5 4 10 0 6 -5 10 -11 10 -5 0
-7 -4 -4 -10z"/>
<path d="M2615 2180 c3 -5 8 -10 11 -10 2 0 4 5 4 10 0 6 -5 10 -11 10 -5 0
-7 -4 -4 -10z"/>
<path d="M2690 2179 c0 -5 -4 -7 -10 -4 -5 3 -10 -1 -10 -9 0 -14 3 -14 20 -4
21 14 27 28 10 28 -5 0 -10 -5 -10 -11z"/>
<path d="M2990 2174 c0 -8 5 -12 10 -9 6 3 10 10 10 16 0 5 -4 9 -10 9 -5 0
-10 -7 -10 -16z"/>
<path d="M2524 2167 c3 -10 6 -27 6 -38 0 -10 5 -19 10 -19 12 0 2 50 -13 65
-7 7 -8 4 -3 -8z"/>
<path d="M2750 2164 c0 -8 5 -12 10 -9 6 3 10 10 10 16 0 5 -4 9 -10 9 -5 0
-10 -7 -10 -16z"/>
<path d="M2800 2160 c0 -5 5 -10 10 -10 6 0 10 5 10 10 0 6 -4 10 -10 10 -5 0
-10 -4 -10 -10z"/>
<path d="M2854 2156 c-3 -9 -10 -14 -14 -11 -5 3 -11 1 -14 -4 -4 -5 -2 -12 3
-15 5 -4 12 -2 16 4 10 16 35 11 35 -7 0 -13 3 -14 12 -5 9 9 7 17 -10 32 -19
18 -23 19 -28 6z"/>
<path d="M2720 2150 c0 -5 5 -10 10 -10 6 0 10 5 10 10 0 6 -4 10 -10 10 -5 0
-10 -4 -10 -10z"/>
<path d="M2770 2151 c0 -6 5 -13 10 -16 6 -3 10 1 10 9 0 9 -4 16 -10 16 -5 0
-10 -4 -10 -9z"/>
<path d="M2397 2143 c-2 -5 -7 -24 -11 -45 -5 -27 -2 -40 10 -52 15 -16 18
-16 36 1 17 16 18 18 4 21 -18 4 -23 42 -5 42 5 0 7 5 4 10 -4 6 -11 7 -17 4
-6 -4 -8 -2 -4 4 3 6 2 13 -3 16 -5 4 -12 3 -14 -1z"/>
<path d="M2555 2140 c3 -5 8 -10 11 -10 2 0 4 5 4 10 0 6 -5 10 -11 10 -5 0
-7 -4 -4 -10z"/>
<path d="M2645 2140 c-3 -5 -1 -10 4 -10 6 0 11 5 11 10 0 6 -2 10 -4 10 -3 0
-8 -4 -11 -10z"/>
<path d="M2200 2130 c0 -5 5 -10 10 -10 6 0 10 5 10 10 0 6 -4 10 -10 10 -5 0
-10 -4 -10 -10z"/>
<path d="M2290 2129 c0 -5 5 -7 10 -4 6 3 10 8 10 11 0 2 -4 4 -10 4 -5 0 -10
-5 -10 -11z"/>
<path d="M2750 2112 c0 -4 9 -13 20 -20 23 -14 26 -7 6 14 -16 15 -26 18 -26
6z"/>
<path d="M2800 2110 c0 -5 5 -10 11 -10 5 0 7 5 4 10 -3 6 -8 10 -11 10 -2 0
-4 -4 -4 -10z"/>
<path d="M2720 2100 c0 -5 5 -10 10 -10 6 0 10 5 10 10 0 6 -4 10 -10 10 -5 0
-10 -4 -10 -10z"/>
<path d="M2855 2101 c-3 -5 -1 -12 5 -16 5 -3 10 1 10 9 0 18 -6 21 -15 7z"/>
<path d="M2571 2084 c0 -11 3 -14 6 -6 3 7 2 16 -1 19 -3 4 -6 -2 -5 -13z"/>
<path d="M2906 2085 c4 -8 10 -12 15 -9 13 8 11 -10 -2 -23 -8 -8 -6 -17 10
-34 16 -18 21 -19 21 -7 0 9 -8 19 -17 23 -17 6 -17 7 1 21 20 14 20 14 0 29
-25 19 -35 19 -28 0z"/>
<path d="M2880 2076 c0 -9 5 -16 10 -16 6 0 10 4 10 9 0 6 -4 13 -10 16 -5 3
-10 -1 -10 -9z"/>
<path d="M2246 2071 c-3 -5 1 -11 9 -14 9 -4 12 -1 8 9 -6 16 -10 17 -17 5z"/>
<path d="M2590 2065 c0 -8 5 -15 10 -15 6 0 10 7 10 15 0 8 -4 15 -10 15 -5 0
-10 -7 -10 -15z"/>
<path d="M2350 2054 c0 -8 5 -12 10 -9 6 3 10 10 10 16 0 5 -4 9 -10 9 -5 0
-10 -7 -10 -16z"/>
<path d="M2750 2060 c0 -5 5 -10 11 -10 5 0 7 5 4 10 -3 6 -8 10 -11 10 -2 0
-4 -4 -4 -10z"/>
<path d="M2210 2050 c0 -5 5 -10 10 -10 6 0 10 5 10 10 0 6 -4 10 -10 10 -5 0
-10 -4 -10 -10z"/>
<path d="M2300 2050 c0 -5 5 -10 10 -10 6 0 10 5 10 10 0 6 -4 10 -10 10 -5 0
-10 -4 -10 -10z"/>
<path d="M2800 2050 c0 -5 5 -10 10 -10 6 0 10 5 10 10 0 6 -4 10 -10 10 -5 0
-10 -4 -10 -10z"/>
<path d="M2781 2034 c0 -11 3 -14 6 -6 3 7 2 16 -1 19 -3 4 -6 -2 -5 -13z"/>
<path d="M2180 2030 c0 -5 5 -10 10 -10 6 0 10 -7 10 -15 0 -8 5 -15 10 -15
13 0 12 11 -4 33 -15 19 -26 22 -26 7z"/>
<path d="M2461 2024 c0 -11 3 -14 6 -6 3 7 2 16 -1 19 -3 4 -6 -2 -5 -13z"/>
<path d="M2570 2030 c0 -5 5 -10 10 -10 6 0 10 5 10 10 0 6 -4 10 -10 10 -5 0
-10 -4 -10 -10z"/>
<path d="M2612 2024 c-16 -18 -15 -31 3 -31 8 0 12 4 9 9 -3 4 -1 8 4 8 6 0
12 6 15 13 7 17 -15 18 -31 1z"/>
<path d="M2230 2014 c0 -8 5 -12 10 -9 6 4 8 11 5 16 -9 14 -15 11 -15 -7z"/>
<path d="M2320 2019 c0 -5 5 -7 10 -4 6 3 10 8 10 11 0 2 -4 4 -10 4 -5 0 -10
-5 -10 -11z"/>
<path d="M2885 2020 c3 -5 8 -10 11 -10 2 0 4 5 4 10 0 6 -5 10 -11 10 -5 0
-7 -4 -4 -10z"/>
<path d="M2430 2004 c0 -8 5 -12 10 -9 6 4 8 11 5 16 -9 14 -15 11 -15 -7z"/>
<path d="M2650 2003 c0 -12 -5 -23 -12 -25 -8 -3 -4 -12 10 -26 15 -15 22 -18
22 -8 0 8 -6 16 -12 19 -10 3 -10 8 1 21 11 13 11 20 3 28 -9 9 -12 7 -12 -9z"/>
<path d="M2800 2001 c0 -6 5 -13 10 -16 6 -3 10 1 10 9 0 9 -4 16 -10 16 -5 0
-10 -4 -10 -9z"/>
<path d="M2120 1994 c0 -7 27 -34 34 -34 13 0 5 16 -14 28 -11 7 -20 10 -20 6z"/>
<path d="M2860 1989 c0 -5 5 -7 10 -4 6 3 10 8 10 11 0 2 -4 4 -10 4 -5 0 -10
-5 -10 -11z"/>
<path d="M2910 1990 c0 -5 5 -10 10 -10 6 0 10 5 10 10 0 6 -4 10 -10 10 -5 0
-10 -4 -10 -10z"/>
<path d="M2170 1980 c0 -5 5 -10 10 -10 6 0 10 5 10 10 0 6 -4 10 -10 10 -5 0
-10 -4 -10 -10z"/>
<path d="M2836 1981 c-5 -7 -1 -18 10 -26 18 -12 17 -14 -6 -34 l-25 -21 25 3
c15 1 24 -3 23 -10 -2 -7 6 -17 17 -23 12 -6 17 -17 14 -28 -5 -16 -5 -16 5 0
9 13 6 22 -14 44 -19 21 -22 29 -13 35 8 5 14 3 16 -6 2 -8 10 -15 17 -15 21
0 8 25 -22 41 -14 7 -29 22 -33 33 -5 14 -9 16 -14 7z"/>
<path d="M2886 1981 c-4 -7 -5 -15 -2 -18 9 -9 19 4 14 18 -4 11 -6 11 -12 0z"/>
<path d="M2220 1964 c0 -8 5 -12 10 -9 6 4 8 11 5 16 -9 14 -15 11 -15 -7z"/>
<path d="M2455 1971 c-3 -5 -1 -12 5 -16 5 -3 10 1 10 9 0 18 -6 21 -15 7z"/>
<path d="M2683 1945 c3 -23 -1 -41 -11 -51 -8 -8 -11 -18 -8 -22 4 -3 10 -2
14 4 4 6 16 14 27 18 19 7 19 8 2 17 -12 7 -15 17 -11 33 3 13 1 27 -6 31 -7
4 -9 -5 -7 -30z"/>
<path d="M2940 1970 c0 -5 5 -10 11 -10 5 0 7 5 4 10 -3 6 -8 10 -11 10 -2 0
-4 -4 -4 -10z"/>
<path d="M2270 1960 c0 -5 5 -10 10 -10 6 0 10 5 10 10 0 6 -4 10 -10 10 -5 0
-10 -4 -10 -10z"/>
<path d="M2190 1950 c0 -5 5 -10 10 -10 6 0 10 5 10 10 0 6 -4 10 -10 10 -5 0
-10 -4 -10 -10z"/>
<path d="M2600 1950 c0 -5 5 -10 10 -10 6 0 10 5 10 10 0 6 -4 10 -10 10 -5 0
-10 -4 -10 -10z"/>
<path d="M2735 1950 c3 -5 8 -10 11 -10 2 0 4 5 4 10 0 6 -5 10 -11 10 -5 0
-7 -4 -4 -10z"/>
<path d="M2245 1940 c3 -5 8 -10 11 -10 2 0 4 5 4 10 0 6 -5 10 -11 10 -5 0
-7 -4 -4 -10z"/>
<path d="M2706 1941 c-4 -5 -2 -12 3 -15 5 -4 12 -2 15 3 4 5 2 12 -3 15 -5 4
-12 2 -15 -3z"/>
<path d="M2810 1940 c0 -5 5 -10 10 -10 6 0 10 5 10 10 0 6 -4 10 -10 10 -5 0
-10 -4 -10 -10z"/>
<path d="M2210 1914 c0 -10 31 -36 37 -31 3 3 -2 13 -10 22 -16 15 -27 19 -27
9z"/>
<path d="M2630 1910 c0 -5 5 -10 10 -10 6 0 10 5 10 10 0 6 -4 10 -10 10 -5 0
-10 -4 -10 -10z"/>
<path d="M2100 1900 c0 -5 5 -10 11 -10 5 0 7 5 4 10 -3 6 -8 10 -11 10 -2 0
-4 -4 -4 -10z"/>
<path d="M2180 1900 c0 -5 5 -10 10 -10 6 0 10 5 10 10 0 6 -4 10 -10 10 -5 0
-10 -4 -10 -10z"/>
<path d="M2260 1906 c0 -2 7 -7 16 -10 8 -3 12 -2 9 4 -6 10 -25 14 -25 6z"/>
<path d="M2611 1894 c0 -11 3 -14 6 -6 3 7 2 16 -1 19 -3 4 -6 -2 -5 -13z"/>
<path d="M2730 1901 c0 -6 5 -13 10 -16 6 -3 10 1 10 9 0 9 -4 16 -10 16 -5 0
-10 -4 -10 -9z"/>
<path d="M2066 1885 c-3 -9 0 -15 9 -15 16 0 20 16 6 24 -5 3 -11 -1 -15 -9z"/>
<path d="M2430 1889 c0 -5 5 -7 10 -4 6 3 10 8 10 11 0 2 -4 4 -10 4 -5 0 -10
-5 -10 -11z"/>
<path d="M2706 1875 c-4 -10 1 -15 14 -15 13 0 18 5 14 15 -4 8 -10 15 -14 15
-4 0 -10 -7 -14 -15z"/>
<path d="M2125 1870 c3 -5 8 -10 11 -10 2 0 4 5 4 10 0 6 -5 10 -11 10 -5 0
-7 -4 -4 -10z"/>
<path d="M2200 1872 c0 -7 7 -20 15 -28 8 -8 19 -23 24 -32 5 -9 13 -14 17
-10 4 4 1 14 -5 22 -10 11 -8 17 6 26 16 10 15 10 -5 5 -16 -5 -28 -1 -37 12
-9 12 -14 13 -15 5z"/>
<path d="M2760 1864 c0 -8 5 -12 10 -9 6 3 10 10 10 16 0 5 -4 9 -10 9 -5 0
-10 -7 -10 -16z"/>
<path d="M2841 1864 c0 -11 3 -14 6 -6 3 7 2 16 -1 19 -3 4 -6 -2 -5 -13z"/>
<path d="M2821 1854 c0 -11 3 -14 6 -6 3 7 2 16 -1 19 -3 4 -6 -2 -5 -13z"/>
<path d="M2170 1850 c0 -5 5 -10 10 -10 6 0 10 5 10 10 0 6 -4 10 -10 10 -5 0
-10 -4 -10 -10z"/>
<path d="M2620 1843 c-13 -15 -12 -16 4 -10 10 4 20 7 22 7 2 0 4 5 4 10 0 15
-13 12 -30 -7z"/>
<path d="M2515 1840 c3 -5 8 -10 11 -10 2 0 4 5 4 10 0 6 -5 10 -11 10 -5 0
-7 -4 -4 -10z"/>
<path d="M2690 1843 c0 -13 32 -34 48 -31 30 6 19 30 -15 33 -18 2 -33 1 -33
-2z"/>
<path d="M2865 1841 c-3 -5 -1 -12 5 -16 5 -3 10 1 10 9 0 18 -6 21 -15 7z"/>
<path d="M2430 1830 c0 -5 5 -10 10 -10 6 0 10 5 10 10 0 6 -4 10 -10 10 -5 0
-10 -4 -10 -10z"/>
<path d="M2485 1831 c-3 -5 -1 -12 5 -16 5 -3 10 1 10 9 0 18 -6 21 -15 7z"/>
<path d="M2660 1824 c0 -8 5 -12 10 -9 6 4 8 11 5 16 -9 14 -15 11 -15 -7z"/>
<path d="M2790 1826 c0 -10 -6 -13 -15 -10 -9 4 -15 0 -15 -9 0 -26 14 -26 33
-2 10 15 13 26 7 30 -5 3 -10 -1 -10 -9z"/>
<path d="M2195 1810 c3 -5 8 -10 11 -10 2 0 4 5 4 10 0 6 -5 10 -11 10 -5 0
-7 -4 -4 -10z"/>
<path d="M2340 1810 c0 -5 5 -10 10 -10 6 0 10 5 10 10 0 6 -4 10 -10 10 -5 0
-10 -4 -10 -10z"/>
<path d="M2840 1809 c0 -5 -4 -7 -10 -4 -5 3 -10 1 -10 -4 0 -13 3 -13 24 -5
18 7 22 24 6 24 -5 0 -10 -5 -10 -11z"/>
<path d="M2270 1784 c0 -8 5 -12 10 -9 6 4 8 11 5 16 -9 14 -15 11 -15 -7z"/>
<path d="M2307 1779 c-10 -11 -16 -24 -13 -27 6 -6 35 27 36 41 0 11 -4 9 -23
-14z"/>
<path d="M2370 1790 c0 -5 5 -10 11 -10 5 0 7 5 4 10 -3 6 -8 10 -11 10 -2 0
-4 -4 -4 -10z"/>
<path d="M2691 1784 c0 -11 3 -14 6 -6 3 7 2 16 -1 19 -3 4 -6 -2 -5 -13z"/>
<path d="M2510 1779 c0 -5 5 -7 10 -4 6 3 10 8 10 11 0 2 -4 4 -10 4 -5 0 -10
-5 -10 -11z"/>
<path d="M2740 1774 c0 -8 5 -12 10 -9 6 3 10 -3 10 -14 0 -15 6 -21 21 -21
20 0 20 0 -3 29 -26 34 -38 38 -38 15z"/>
<path d="M2476 1764 c-4 -10 -1 -14 6 -12 15 5 23 28 10 28 -5 0 -13 -7 -16
-16z"/>
<path d="M2560 1769 c0 -5 5 -7 10 -4 6 3 10 8 10 11 0 2 -4 4 -10 4 -5 0 -10
-5 -10 -11z"/>
<path d="M2660 1770 c0 -5 5 -10 10 -10 6 0 10 5 10 10 0 6 -4 10 -10 10 -5 0
-10 -4 -10 -10z"/>
<path d="M2710 1766 c0 -9 5 -16 10 -16 6 0 10 4 10 9 0 6 -4 13 -10 16 -5 3
-10 -1 -10 -9z"/>
<path d="M2790 1764 c0 -8 5 -12 10 -9 6 3 10 10 10 16 0 5 -4 9 -10 9 -5 0
-10 -7 -10 -16z"/>
<path d="M2246 1761 c-4 -7 -5 -15 -2 -18 9 -9 19 4 14 18 -4 11 -6 11 -12 0z"/>
<path d="M2535 1760 c-3 -5 -1 -10 4 -10 6 0 11 5 11 10 0 6 -2 10 -4 10 -3 0
-8 -4 -11 -10z"/>
<path d="M2840 1761 c0 -6 5 -13 10 -16 6 -3 10 1 10 9 0 9 -4 16 -10 16 -5 0
-10 -4 -10 -9z"/>
<path d="M2340 1749 c0 -5 5 -7 10 -4 6 3 10 8 10 11 0 2 -4 4 -10 4 -5 0 -10
-5 -10 -11z"/>
<path d="M2810 1740 c0 -5 5 -10 10 -10 6 0 10 5 10 10 0 6 -4 10 -10 10 -5 0
-10 -4 -10 -10z"/>
<path d="M2455 1730 c3 -5 8 -10 11 -10 2 0 4 5 4 10 0 6 -5 10 -11 10 -5 0
-7 -4 -4 -10z"/>
<path d="M2560 1720 c0 -5 5 -10 11 -10 5 0 7 5 4 10 -3 6 -8 10 -11 10 -2 0
-4 -4 -4 -10z"/>
<path d="M2675 1719 c-4 -6 -4 -13 -1 -16 3 -4 6 -1 6 6 0 7 5 9 10 6 6 -3 10
-1 10 4 0 14 -17 14 -25 0z"/>
<path d="M2740 1720 c0 -5 5 -10 10 -10 6 0 10 -7 10 -15 0 -8 7 -15 15 -15
14 0 13 3 -2 25 -19 25 -33 32 -33 15z"/>
<path d="M2793 1705 c15 -10 17 -18 8 -32 -6 -10 -11 -13 -11 -8 -1 6 -5 2 -9
-9 -7 -18 -8 -18 -25 -1 -23 23 -32 12 -10 -13 13 -16 22 -18 35 -12 12 7 19
5 23 -5 8 -22 29 -18 54 8 23 25 29 47 12 47 -5 0 -10 -10 -10 -22 0 -21 0
-21 -15 -2 -14 18 -14 18 -15 -5 0 -13 -3 -21 -7 -17 -15 15 -10 34 14 45 13
6 21 16 17 22 -4 8 -9 7 -15 -2 -8 -11 -12 -11 -23 4 -7 9 -19 17 -27 17 -10
-1 -9 -5 4 -15z"/>
<path d="M2710 1700 c0 -5 5 -10 10 -10 6 0 10 5 10 10 0 6 -4 10 -10 10 -5 0
-10 -4 -10 -10z"/>
<path d="M2340 1689 c0 -5 5 -7 10 -4 6 3 10 8 10 11 0 2 -4 4 -10 4 -5 0 -10
-5 -10 -11z"/>
<path d="M2315 1680 c3 -5 8 -10 11 -10 2 0 4 5 4 10 0 6 -5 10 -11 10 -5 0
-7 -4 -4 -10z"/>
<path d="M2625 1680 c-3 -5 -1 -10 4 -10 6 0 11 5 11 10 0 6 -2 10 -4 10 -3 0
-8 -4 -11 -10z"/>
<path d="M2669 1664 c-12 -15 -11 -16 9 -10 16 6 22 3 22 -8 0 -9 5 -16 10
-16 15 0 12 19 -4 36 -18 18 -21 18 -37 -2z"/>
<path d="M2590 1650 c0 -5 5 -10 10 -10 6 0 10 5 10 10 0 6 -4 10 -10 10 -5 0
-10 -4 -10 -10z"/>
<path d="M2640 1629 c0 -5 5 -7 10 -4 6 3 10 8 10 11 0 2 -4 4 -10 4 -5 0 -10
-5 -10 -11z"/>
<path d="M2670 1620 c0 -5 5 -10 11 -10 5 0 7 5 4 10 -3 6 -8 10 -11 10 -2 0
-4 -4 -4 -10z"/>
<path d="M2720 1599 c0 -5 5 -7 10 -4 6 3 10 8 10 11 0 2 -4 4 -10 4 -5 0 -10
-5 -10 -11z"/>
<path d="M2690 1590 c0 -5 5 -10 10 -10 6 0 10 5 10 10 0 6 -4 10 -10 10 -5 0
-10 -4 -10 -10z"/>
<path d="M2340 1580 c0 -5 5 -10 10 -10 6 0 10 5 10 10 0 6 -4 10 -10 10 -5 0
-10 -4 -10 -10z"/>
<path d="M2620 1580 c0 -5 5 -10 11 -10 5 0 7 5 4 10 -3 6 -8 10 -11 10 -2 0
-4 -4 -4 -10z"/>
<path d="M2745 1580 c-3 -5 -1 -10 4 -10 6 0 11 5 11 10 0 6 -2 10 -4 10 -3 0
-8 -4 -11 -10z"/>
<path d="M2310 1554 c0 -8 5 -12 10 -9 6 3 10 10 10 16 0 5 -4 9 -10 9 -5 0
-10 -7 -10 -16z"/>
<path d="M2590 1559 c0 -5 5 -7 10 -4 6 3 10 8 10 11 0 2 -4 4 -10 4 -5 0 -10
-5 -10 -11z"/>
<path d="M2635 1550 c-3 -5 -1 -10 4 -10 6 0 11 5 11 10 0 6 -2 10 -4 10 -3 0
-8 -4 -11 -10z"/>
<path d="M2710 1544 c0 -8 5 -12 10 -9 6 4 8 11 5 16 -9 14 -15 11 -15 -7z"/>
<path d="M2680 1536 c0 -9 5 -16 10 -16 6 0 10 4 10 9 0 6 -4 13 -10 16 -5 3
-10 -1 -10 -9z"/>
<path d="M2760 1534 c0 -8 5 -12 10 -9 6 3 10 10 10 16 0 5 -4 9 -10 9 -5 0
-10 -7 -10 -16z"/>
<path d="M2420 1530 c0 -5 5 -10 10 -10 6 0 9 -4 8 -9 -2 -5 0 -9 5 -10 9 -1
10 1 2 22 -8 18 -25 24 -25 7z"/>
<path d="M2820 1524 c0 -8 5 -12 10 -9 6 4 8 11 5 16 -9 14 -15 11 -15 -7z"/>
<path d="M2730 1520 c0 -5 5 -10 10 -10 6 0 10 5 10 10 0 6 -4 10 -10 10 -5 0
-10 -4 -10 -10z"/>
<path d="M2470 1509 c0 -5 5 -7 10 -4 6 3 10 8 10 11 0 2 -4 4 -10 4 -5 0 -10
-5 -10 -11z"/>
<path d="M2651 1504 c0 -11 3 -14 6 -6 3 7 2 16 -1 19 -3 4 -6 -2 -5 -13z"/>
<path d="M2780 1510 c0 -5 5 -10 10 -10 6 0 10 5 10 10 0 6 -4 10 -10 10 -5 0
-10 -4 -10 -10z"/>
<path d="M2486 1491 c-4 -7 -5 -15 -2 -18 9 -9 19 4 14 18 -4 11 -6 11 -12 0z"/>
<path d="M2620 1489 c0 -5 5 -7 10 -4 6 3 10 8 10 11 0 2 -4 4 -10 4 -5 0 -10
-5 -10 -11z"/>
<path d="M2700 1494 c0 -7 27 -34 34 -34 4 0 1 9 -6 20 -12 19 -28 27 -28 14z"/>
<path d="M2750 1485 c0 -3 9 -15 20 -27 11 -13 20 -16 20 -9 0 7 -6 19 -14 27
-15 14 -26 18 -26 9z"/>
<path d="M2800 1470 c0 -5 5 -10 10 -10 6 0 10 5 10 10 0 6 -4 10 -10 10 -5 0
-10 -4 -10 -10z"/>
<path d="M2416 1461 c-4 -7 -5 -15 -2 -18 9 -9 19 4 14 18 -4 11 -6 11 -12 0z"/>
<path d="M2640 1449 c0 -5 5 -7 10 -4 6 3 10 8 10 11 0 2 -4 4 -10 4 -5 0 -10
-5 -10 -11z"/>
<path d="M2826 1451 c-4 -5 -2 -12 3 -15 5 -4 12 -2 15 3 4 5 2 12 -3 15 -5 4
-12 2 -15 -3z"/>
<path d="M2610 1439 c0 -5 5 -7 10 -4 6 3 10 8 10 11 0 2 -4 4 -10 4 -5 0 -10
-5 -10 -11z"/>
<path d="M2530 1430 c0 -5 5 -10 11 -10 5 0 7 5 4 10 -3 6 -8 10 -11 10 -2 0
-4 -4 -4 -10z"/>
<path d="M2655 1431 c-3 -5 -1 -12 5 -16 5 -3 10 1 10 9 0 18 -6 21 -15 7z"/>
<path d="M2740 1424 c0 -8 5 -12 10 -9 6 3 10 10 10 16 0 5 -4 9 -10 9 -5 0
-10 -7 -10 -16z"/>
<path d="M2495 1421 c-3 -5 -1 -12 5 -16 5 -3 10 1 10 9 0 18 -6 21 -15 7z"/>
<path d="M2710 1409 c0 -5 5 -7 10 -4 6 3 10 8 10 11 0 2 -4 4 -10 4 -5 0 -10
-5 -10 -11z"/>
<path d="M4980 1413 c0 -5 5 -15 10 -23 8 -12 10 -11 10 8 0 12 -4 22 -10 22
-5 0 -10 -3 -10 -7z"/>
<path d="M2760 1400 c0 -5 5 -10 10 -10 6 0 10 5 10 10 0 6 -4 10 -10 10 -5 0
-10 -4 -10 -10z"/>
<path d="M2600 1390 c0 -5 5 -10 10 -10 6 0 10 5 10 10 0 6 -4 10 -10 10 -5 0
-10 -4 -10 -10z"/>
<path d="M2681 1384 c0 -11 3 -14 6 -6 3 7 2 16 -1 19 -3 4 -6 -2 -5 -13z"/>
<path d="M2505 1380 c-3 -5 -1 -10 4 -10 6 0 11 5 11 10 0 6 -2 10 -4 10 -3 0
-8 -4 -11 -10z"/>
<path d="M2360 1369 c0 -5 5 -7 10 -4 6 3 10 8 10 11 0 2 -4 4 -10 4 -5 0 -10
-5 -10 -11z"/>
<path d="M2730 1374 c0 -7 27 -34 34 -34 13 0 5 16 -14 28 -11 7 -20 10 -20 6z"/>
<path d="M2526 1355 c-3 -8 -1 -15 4 -15 6 0 10 7 10 15 0 8 -2 15 -4 15 -2 0
-6 -7 -10 -15z"/>
<path d="M2560 1359 c0 -5 5 -7 10 -4 6 3 10 8 10 11 0 2 -4 4 -10 4 -5 0 -10
-5 -10 -11z"/>
<path d="M2610 1350 c0 -19 3 -21 12 -12 9 9 9 15 0 24 -9 9 -12 7 -12 -12z"/>
<path d="M2780 1360 c0 -5 5 -10 10 -10 6 0 10 5 10 10 0 6 -4 10 -10 10 -5 0
-10 -4 -10 -10z"/>
<path d="M2380 1339 c0 -5 5 -7 10 -4 6 3 10 8 10 11 0 2 -4 4 -10 4 -5 0 -10
-5 -10 -11z"/>
<path d="M2580 1334 c0 -8 5 -12 10 -9 6 3 10 10 10 16 0 5 -4 9 -10 9 -5 0
-10 -7 -10 -16z"/>
<path d="M2805 1340 c-3 -5 -1 -10 4 -10 6 0 11 5 11 10 0 6 -2 10 -4 10 -3 0
-8 -4 -11 -10z"/>
<path d="M2660 1330 c0 -5 5 -10 10 -10 6 0 10 5 10 10 0 6 -4 10 -10 10 -5 0
-10 -4 -10 -10z"/>
<path d="M2867 1329 c7 -7 15 -10 18 -7 3 3 -2 9 -12 12 -14 6 -15 5 -6 -5z"/>
<path d="M2490 1320 c0 -5 5 -10 10 -10 6 0 10 5 10 10 0 6 -4 10 -10 10 -5 0
-10 -4 -10 -10z"/>
<path d="M2630 1320 c0 -5 5 -10 10 -10 6 0 10 5 10 10 0 6 -4 10 -10 10 -5 0
-10 -4 -10 -10z"/>
<path d="M2406 1305 c-9 -26 -7 -32 5 -12 6 10 9 21 6 23 -2 3 -7 -2 -11 -11z"/>
<path d="M2545 1310 c-3 -5 -1 -10 4 -10 6 0 11 5 11 10 0 6 -2 10 -4 10 -3 0
-8 -4 -11 -10z"/>
<path d="M2691 1304 c0 -11 3 -14 6 -6 3 7 2 16 -1 19 -3 4 -6 -2 -5 -13z"/>
<path d="M2770 1304 c0 -8 5 -12 10 -9 6 3 10 10 10 16 0 5 -4 9 -10 9 -5 0
-10 -7 -10 -16z"/>
<path d="M2745 1300 c-3 -5 -1 -10 4 -10 6 0 11 5 11 10 0 6 -2 10 -4 10 -3 0
-8 -4 -11 -10z"/>
<path d="M2600 1289 c0 -5 5 -7 10 -4 6 3 10 8 10 11 0 2 -4 4 -10 4 -5 0 -10
-5 -10 -11z"/>
<path d="M2570 1280 c0 -5 5 -10 10 -10 6 0 10 5 10 10 0 6 -4 10 -10 10 -5 0
-10 -4 -10 -10z"/>
<path d="M2650 1280 c0 -5 5 -10 10 -10 6 0 10 5 10 10 0 6 -4 10 -10 10 -5 0
-10 -4 -10 -10z"/>
<path d="M2790 1280 c0 -5 4 -10 9 -10 6 0 13 5 16 10 3 6 -1 10 -9 10 -9 0
-16 -4 -16 -10z"/>
<path d="M1925 1270 c-3 -5 1 -10 9 -10 9 0 16 5 16 10 0 6 -4 10 -9 10 -6 0
-13 -4 -16 -10z"/>
<path d="M1964 1264 c3 -9 6 -18 6 -20 0 -2 7 -4 15 -4 18 0 19 12 3 28 -17
17 -31 15 -24 -4z"/>
<path d="M2180 1266 c0 -18 16 -29 30 -21 6 4 5 12 -4 21 -18 18 -26 18 -26 0z"/>
<path d="M2625 1270 c3 -5 8 -10 11 -10 2 0 4 5 4 10 0 6 -5 10 -11 10 -5 0
-7 -4 -4 -10z"/>
<path d="M2710 1270 c0 -5 5 -10 11 -10 5 0 7 5 4 10 -3 6 -8 10 -11 10 -2 0
-4 -4 -4 -10z"/>
<path d="M2850 1270 c0 -5 7 -7 15 -4 8 4 15 8 15 10 0 2 -7 4 -15 4 -8 0 -15
-4 -15 -10z"/>
<path d="M2010 1260 c0 -5 8 -10 18 -11 10 0 12 -3 5 -6 -18 -7 -16 -23 2 -23
18 0 20 21 3 38 -15 15 -28 16 -28 2z"/>
<path d="M2230 1259 c0 -5 5 -7 10 -4 6 3 10 8 10 11 0 2 -4 4 -10 4 -5 0 -10
-5 -10 -11z"/>
<path d="M2680 1249 c0 -5 5 -7 10 -4 6 3 10 8 10 11 0 2 -4 4 -10 4 -5 0 -10
-5 -10 -11z"/>
<path d="M2885 1250 c-3 -5 -1 -10 4 -10 6 0 11 5 11 10 0 6 -2 10 -4 10 -3 0
-8 -4 -11 -10z"/>
<path d="M1930 1242 c0 -15 24 -32 46 -32 12 0 24 -6 27 -12 2 -7 7 -10 11 -7
13 12 -6 40 -24 34 -9 -3 -23 1 -30 10 -13 16 -30 20 -30 7z"/>
<path d="M2315 1240 c3 -5 8 -10 11 -10 2 0 4 5 4 10 0 6 -5 10 -11 10 -5 0
-7 -4 -4 -10z"/>
<path d="M2595 1240 c-3 -5 -1 -10 4 -10 6 0 11 5 11 10 0 6 -2 10 -4 10 -3 0
-8 -4 -11 -10z"/>
<path d="M2735 1240 c3 -5 8 -10 11 -10 2 0 4 5 4 10 0 6 -5 10 -11 10 -5 0
-7 -4 -4 -10z"/>
<path d="M2820 1239 c0 -5 5 -7 10 -4 6 3 10 8 10 11 0 2 -4 4 -10 4 -5 0 -10
-5 -10 -11z"/>
<path d="M2110 1230 c0 -5 5 -10 10 -10 6 0 10 5 10 10 0 6 -4 10 -10 10 -5 0
-10 -4 -10 -10z"/>
<path d="M2840 1220 c0 -5 7 -10 16 -10 8 0 12 5 9 10 -3 6 -10 10 -16 10 -5
0 -9 -4 -9 -10z"/>
<path d="M2040 1199 c0 -5 5 -7 10 -4 6 3 10 8 10 11 0 2 -4 4 -10 4 -5 0 -10
-5 -10 -11z"/>
<path d="M1960 1191 c0 -5 7 -12 16 -15 24 -9 27 -7 10 9 -17 17 -26 19 -26 6z"/>
<path d="M2415 1160 c3 -5 8 -10 11 -10 2 0 4 5 4 10 0 6 -5 10 -11 10 -5 0
-7 -4 -4 -10z"/>
<path d="M2840 1160 c0 -5 5 -10 10 -10 6 0 10 5 10 10 0 6 -4 10 -10 10 -5 0
-10 -4 -10 -10z"/>
<path d="M2060 1140 c0 -5 5 -10 10 -10 6 0 10 5 10 10 0 6 -4 10 -10 10 -5 0
-10 -4 -10 -10z"/>
<path d="M2565 1130 c-3 -5 -1 -10 4 -10 6 0 11 5 11 10 0 6 -2 10 -4 10 -3 0
-8 -4 -11 -10z"/>
<path d="M2925 1130 c-3 -5 -1 -10 4 -10 6 0 11 5 11 10 0 6 -2 10 -4 10 -3 0
-8 -4 -11 -10z"/>
<path d="M2350 1116 c0 -9 5 -16 10 -16 6 0 10 4 10 9 0 6 -4 13 -10 16 -5 3
-10 -1 -10 -9z"/>
<path d="M2620 1109 c0 -5 5 -7 10 -4 6 3 10 8 10 11 0 2 -4 4 -10 4 -5 0 -10
-5 -10 -11z"/>
<path d="M2840 1110 c0 -5 5 -10 10 -10 6 0 10 5 10 10 0 6 -4 10 -10 10 -5 0
-10 -4 -10 -10z"/>
<path d="M2860 1081 c0 -5 5 -13 10 -16 6 -3 10 -2 10 4 0 5 -4 13 -10 16 -5
3 -10 2 -10 -4z"/>
<path d="M2910 1070 c0 -5 5 -10 10 -10 6 0 10 5 10 10 0 6 -4 10 -10 10 -5 0
-10 -4 -10 -10z"/>
<path d="M1290 1066 c0 -2 8 -10 18 -17 15 -13 16 -12 3 4 -13 16 -21 21 -21
13z"/>
<path d="M2830 1049 c0 -5 5 -7 10 -4 6 3 10 8 10 11 0 2 -4 4 -10 4 -5 0 -10
-5 -10 -11z"/>
<path d="M2887 1053 c-4 -3 -7 -11 -7 -17 0 -6 5 -5 12 2 6 6 9 14 7 17 -3 3
-9 2 -12 -2z"/>
<path d="M2925 1030 c-3 -5 1 -10 10 -10 9 0 13 5 10 10 -3 6 -8 10 -10 10 -2
0 -7 -4 -10 -10z"/>
<path d="M2456 1021 c-4 -7 -5 -15 -2 -18 9 -9 19 4 14 18 -4 11 -6 11 -12 0z"/>
<path d="M2400 995 c-15 -18 1 -20 19 -2 7 6 11 8 9 2 -2 -5 0 -11 5 -12 16
-6 19 -2 7 12 -7 8 -16 15 -20 15 -4 0 -13 -7 -20 -15z"/>
<path d="M2340 990 c0 -5 5 -10 10 -10 6 0 10 5 10 10 0 6 -4 10 -10 10 -5 0
-10 -4 -10 -10z"/>
<path d="M2400 935 c-7 -9 -8 -15 -2 -15 5 0 12 7 16 15 3 8 4 15 2 15 -2 0
-9 -7 -16 -15z"/>
<path d="M2340 930 c0 -5 5 -10 10 -10 6 0 10 5 10 10 0 6 -4 10 -10 10 -5 0
-10 -4 -10 -10z"/>
<path d="M1385 910 c50 -83 129 -170 232 -255 151 -127 327 -298 411 -400 105
-128 122 -140 40 -28 -84 115 -197 244 -318 363 -124 123 -383 349 -365 320z"/>
<path d="M2707 831 c-4 -17 -3 -21 5 -13 5 5 8 16 6 23 -3 8 -7 3 -11 -10z"/>
<path d="M2633 790 c4 -27 24 -47 36 -34 5 5 -1 18 -15 32 -23 22 -24 22 -21
2z"/>
<path d="M2247 786 c-4 -10 -1 -13 9 -9 15 6 19 23 5 23 -5 0 -11 -7 -14 -14z"/>
<path d="M2930 790 c0 -5 5 -10 10 -10 6 0 10 5 10 10 0 6 -4 10 -10 10 -5 0
-10 -4 -10 -10z"/>
<path d="M2595 781 c-3 -6 -1 -11 5 -11 7 0 9 -7 6 -16 -3 -8 -2 -13 3 -9 5 3
12 -1 14 -7 4 -9 6 -8 6 2 1 22 -26 54 -34 41z"/>
<path d="M2875 780 c3 -5 11 -10 16 -10 6 0 7 5 4 10 -3 6 -11 10 -16 10 -6 0
-7 -4 -4 -10z"/>
<path d="M2960 774 c0 -8 5 -12 10 -9 6 3 10 10 10 16 0 5 -4 9 -10 9 -5 0
-10 -7 -10 -16z"/>
<path d="M3140 748 c-78 -46 -71 -51 9 -6 65 36 66 37 60 41 -2 2 -33 -14 -69
-35z"/>
<path d="M2485 770 c-3 -5 -1 -10 4 -10 6 0 11 5 11 10 0 6 -2 10 -4 10 -3 0
-8 -4 -11 -10z"/>
<path d="M2540 769 c0 -5 5 -7 10 -4 6 3 10 8 10 11 0 2 -4 4 -10 4 -5 0 -10
-5 -10 -11z"/>
<path d="M2910 766 c0 -9 5 -16 10 -16 6 0 10 4 10 9 0 6 -4 13 -10 16 -5 3
-10 -1 -10 -9z"/>
<path d="M2780 754 c0 -8 5 -12 10 -9 6 4 8 11 5 16 -9 14 -15 11 -15 -7z"/>
<path d="M2823 755 c-15 -16 -16 -25 -5 -25 4 0 13 9 20 20 14 23 3 26 -15 5z"/>
<path d="M2860 754 c0 -8 5 -12 10 -9 6 4 8 11 5 16 -9 14 -15 11 -15 -7z"/>
<path d="M2350 750 c0 -5 5 -10 11 -10 5 0 7 5 4 10 -3 6 -8 10 -11 10 -2 0
-4 -4 -4 -10z"/>
<path d="M2560 740 c0 -6 7 -13 15 -16 8 -4 15 -13 15 -21 0 -8 4 -12 9 -9 5
4 11 0 14 -6 5 -14 36 18 36 37 0 6 -7 1 -15 -10 -15 -20 -16 -20 -38 8 -23
28 -36 34 -36 17z"/>
<path d="M2460 733 c0 -15 19 -37 26 -31 3 4 -1 14 -10 23 -9 9 -16 13 -16 8z"/>
<path d="M2680 730 c0 -5 5 -10 10 -10 6 0 10 5 10 10 0 6 -4 10 -10 10 -5 0
-10 -4 -10 -10z"/>
<path d="M2760 724 c0 -8 5 -12 10 -9 6 4 8 11 5 16 -9 14 -15 11 -15 -7z"/>
<path d="M2020 718 c0 -7 5 -20 10 -28 7 -12 12 -12 22 -2 9 9 9 12 -5 12 -10
0 -14 5 -11 15 4 8 1 15 -5 15 -6 0 -11 -6 -11 -12z"/>
<path d="M2060 726 c0 -3 5 -17 12 -31 11 -25 28 -34 28 -15 0 6 -5 10 -11 10
-5 0 -8 3 -6 8 3 4 -1 13 -9 20 -8 7 -14 11 -14 8z"/>
<path d="M2530 718 c0 -15 20 -48 20 -34 0 6 7 1 15 -10 12 -16 14 -17 15 -2
0 9 -9 20 -20 23 -11 4 -18 10 -15 15 3 5 1 11 -5 15 -5 3 -10 0 -10 -7z"/>
<path d="M2710 716 c0 -9 5 -16 10 -16 6 0 10 4 10 9 0 6 -4 13 -10 16 -5 3
-10 -1 -10 -9z"/>
<path d="M1996 711 c-4 -7 -5 -15 -2 -18 9 -9 19 4 14 18 -4 11 -6 11 -12 0z"/>
<path d="M2840 710 c0 -5 5 -10 10 -10 6 0 10 5 10 10 0 6 -4 10 -10 10 -5 0
-10 -4 -10 -10z"/>
<path d="M3170 705 c-14 -8 -20 -14 -14 -15 5 0 19 7 30 15 24 18 16 19 -16 0z"/>
<path d="M2660 700 c0 -5 5 -10 10 -10 6 0 10 5 10 10 0 6 -4 10 -10 10 -5 0
-10 -4 -10 -10z"/>
<path d="M1700 686 c0 -4 7 -14 15 -22 8 -9 15 -11 15 -6 0 5 -7 15 -15 22 -8
7 -15 9 -15 6z"/>
<path d="M2112 678 c2 -6 10 -13 16 -14 7 -1 8 0 2 3 -5 2 -8 9 -4 14 3 5 0 9
-6 9 -7 0 -10 -5 -8 -12z"/>
<path d="M2490 679 c0 -5 4 -8 9 -5 5 4 11 0 14 -6 2 -7 8 -9 13 -5 5 4 2 12
-6 17 -20 13 -30 12 -30 -1z"/>
<path d="M2161 672 c0 -4 6 -23 14 -42 l13 -35 -1 37 c-1 21 -7 40 -14 42 -7
3 -13 2 -12 -2z"/>
<path d="M2207 673 c-4 -3 -7 -11 -7 -17 0 -6 5 -5 12 2 6 6 9 14 7 17 -3 3
-9 2 -12 -2z"/>
<path d="M2690 670 c0 -5 5 -10 10 -10 6 0 10 5 10 10 0 6 -4 10 -10 10 -5 0
-10 -4 -10 -10z"/>
<path d="M1810 663 c0 -17 68 -75 79 -69 6 4 11 1 11 -7 0 -10 7 -13 20 -10
11 3 20 0 20 -6 0 -6 -4 -11 -10 -11 -5 0 -10 -5 -10 -12 0 -9 3 -9 12 0 16
16 28 15 28 -3 0 -8 5 -15 11 -15 6 0 9 -7 5 -15 -4 -10 1 -15 16 -15 16 0 18
-3 9 -14 -12 -14 0 -32 13 -19 11 11 7 34 -9 50 -13 12 -13 18 -3 32 11 14 11
14 -4 3 -14 -11 -17 -10 -23 7 -3 12 -11 21 -16 21 -5 0 -9 7 -9 15 0 8 -3 14
-8 13 -4 -2 -18 7 -32 20 -13 12 -32 23 -42 23 -26 2 -32 3 -45 12 -7 5 -13 4
-13 0z"/>
<path d="M3485 660 c-4 -6 -10 -8 -15 -5 -5 3 -11 1 -15 -5 -3 -5 -15 -10 -26
-10 -11 0 -17 -4 -14 -10 3 -5 -3 -10 -14 -10 -11 0 -41 -11 -67 -24 -44 -22
-49 -23 -61 -8 -11 15 -12 15 -13 -5 0 -14 -8 -24 -22 -28 -31 -9 -112 -47
-118 -55 -3 -4 -30 -18 -60 -33 -63 -30 -82 -41 -199 -120 -213 -143 -250
-169 -262 -184 -8 -9 27 11 76 44 197 132 342 209 645 344 96 43 169 79 162
79 -7 0 -10 5 -7 10 5 8 11 8 20 0 11 -9 12 -7 8 9 -6 24 -9 25 -18 11z"/>
<path d="M2246 653 c-4 -5 -13 -8 -19 -8 -17 0 -15 -38 3 -43 8 -3 12 -1 7 3
-4 5 3 19 15 32 19 20 13 35 -6 16z"/>
<path d="M2601 644 c0 -11 3 -14 6 -6 3 7 2 16 -1 19 -3 4 -6 -2 -5 -13z"/>
<path d="M2290 640 c0 -5 5 -10 10 -10 6 0 10 5 10 10 0 6 -4 10 -10 10 -5 0
-10 -4 -10 -10z"/>
<path d="M3060 640 c-9 -6 -10 -10 -3 -10 6 0 15 5 18 10 8 12 4 12 -15 0z"/>
<path d="M2256 633 c-9 -10 -7 -43 3 -43 11 0 21 39 11 45 -4 2 -10 2 -14 -2z"/>
<path d="M2330 623 c0 -10 16 -31 35 -47 19 -16 32 -34 28 -40 -3 -6 -3 -8 2
-4 11 11 34 -22 35 -49 0 -14 -6 -23 -15 -23 -13 0 -14 -4 -4 -21 6 -12 7 -19
2 -16 -6 4 -22 -7 -38 -23 -27 -29 -27 -29 -4 -24 l24 5 -22 -17 c-29 -21 -29
-41 -1 -71 25 -26 13 -31 -20 -7 -16 11 -21 22 -17 37 6 22 6 22 -10 2 -8 -11
-14 -24 -11 -30 2 -7 -5 -10 -17 -9 -33 4 -33 4 -18 13 9 6 10 11 2 15 -6 4
-11 2 -11 -3 0 -6 -9 -11 -20 -11 -13 0 -18 5 -13 15 4 13 0 15 -21 11 -18 -3
-26 0 -26 10 0 8 -6 14 -14 14 -21 0 -68 41 -62 56 3 8 -2 12 -15 11 -10 -1
-19 -6 -19 -11 0 -5 -11 1 -24 14 -23 20 -24 24 -9 38 11 12 12 17 3 20 -6 2
-19 -3 -27 -11 -14 -14 -12 -20 23 -66 41 -53 51 -60 51 -36 0 8 -4 12 -8 9
-4 -2 -10 0 -14 6 -3 5 3 10 14 10 15 0 21 -6 21 -21 0 -13 4 -18 13 -14 6 4
4 0 -6 -8 -17 -14 -16 -17 15 -54 18 -21 34 -40 36 -43 2 -2 8 2 13 10 9 13
10 12 5 -2 -3 -11 10 -36 35 -68 35 -45 61 -68 43 -38 -5 8 3 9 28 5 35 -5 37
-4 81 61 24 37 84 109 132 160 66 70 82 92 64 87 -15 -3 -34 1 -50 12 -62 42
-141 106 -145 118 -3 8 -13 11 -22 8 -11 -5 -14 -2 -9 10 3 9 2 19 -3 22 -6 4
-10 -2 -10 -12z m-56 -415 c5 -4 -1 -6 -13 -5 -11 1 -21 8 -21 15 0 9 -6 12
-16 8 -12 -4 -15 -2 -10 9 3 8 1 15 -4 15 -6 0 -10 5 -10 12 0 6 15 -1 33 -18
17 -16 36 -32 41 -36z"/>
<path d="M3280 600 c0 -5 7 -10 15 -10 8 0 15 5 15 10 0 6 -7 10 -15 10 -8 0
-15 -4 -15 -10z"/>
<path d="M3635 570 c-3 -6 1 -7 9 -4 18 7 21 14 7 14 -6 0 -13 -4 -16 -10z"/>
<path d="M3625 541 c-3 -2 -32 -5 -64 -7 -34 -2 -78 -12 -102 -23 -23 -12 -57
-23 -75 -27 -18 -3 -38 -12 -45 -20 -6 -8 -16 -14 -22 -14 -13 0 -239 -90
-252 -100 -5 -5 -30 -16 -55 -26 -76 -30 -410 -224 -410 -238 0 -3 39 18 88
46 209 122 456 229 782 339 84 28 167 57 184 65 l31 13 -28 -2 c-15 -1 -30 -3
-32 -6z"/>
<path d="M1520 536 c0 -2 30 -28 68 -56 37 -29 139 -125 227 -214 171 -172
178 -174 25 -8 -108 118 -320 302 -320 278z"/>
<path d="M3707 456 c-8 -8 -36 -17 -63 -21 -47 -6 -278 -80 -299 -95 -5 -4
-36 -13 -67 -20 -32 -7 -58 -16 -58 -20 0 -4 -19 -12 -42 -19 -104 -30 -404
-172 -518 -245 -72 -46 -52 -46 25 0 94 57 227 121 359 174 117 46 225 82 580
190 203 61 220 69 149 70 -31 0 -57 -5 -66 -14z"/>
<path d="M2071 451 c-20 -6 -22 -8 -9 -19 12 -10 18 -9 28 3 16 19 11 23 -19
16z"/>
<path d="M2200 370 c0 -5 5 -10 11 -10 5 0 7 5 4 10 -3 6 -8 10 -11 10 -2 0
-4 -4 -4 -10z"/>
<path d="M3930 360 c-73 -24 -53 -24 35 -1 39 11 59 19 45 19 -14 1 -50 -7
-80 -18z"/>
<path d="M3251 220 c-97 -37 -125 -50 -107 -50 7 0 175 63 211 80 53 24 -12 5
-104 -30z"/>
<path d="M3080 150 c-19 -11 -30 -19 -25 -19 6 0 26 8 45 19 19 11 31 19 25
19 -5 0 -26 -8 -45 -19z"/>
<path d="M3805 143 c-11 -2 -74 -22 -140 -43 -66 -21 -160 -51 -210 -66 -49
-15 -82 -29 -73 -32 9 -2 26 2 38 8 11 6 62 20 113 31 50 12 133 30 182 41
116 26 210 31 226 12 14 -17 43 1 32 20 -3 6 -3 8 1 4 9 -7 66 10 66 20 0 8
-203 12 -235 5z"/>
<path d="M2293 133 c-21 -8 -15 -22 7 -16 11 3 20 9 20 14 0 10 -8 10 -27 2z"/>
<path d="M2955 130 c-3 -6 1 -7 9 -4 18 7 21 14 7 14 -6 0 -13 -4 -16 -10z"/>
<path d="M2884 94 c-18 -14 -18 -14 6 -3 31 14 36 19 24 19 -6 0 -19 -7 -30
-16z"/>
<path d="M4010 106 c0 -2 7 -9 15 -16 13 -11 14 -10 9 4 -5 14 -24 23 -24 12z"/>
<path d="M1366 82 c-2 -4 -1 -14 3 -21 6 -9 11 -10 15 -2 4 6 2 11 -4 11 -6 0
-8 5 -5 10 3 6 4 10 1 10 -3 0 -7 -4 -10 -8z"/>
<path d="M1620 83 c0 -15 19 -37 26 -31 3 4 -1 14 -10 23 -9 9 -16 13 -16 8z"/>
<path d="M2830 65 c-14 -8 -20 -14 -14 -15 5 0 19 7 30 15 24 18 16 19 -16 0z"/>
<path d="M2910 70 c-8 -5 -10 -10 -5 -10 6 0 17 5 25 10 8 5 11 10 5 10 -5 0
-17 -5 -25 -10z"/>
<path d="M1295 40 c3 -5 8 -10 11 -10 2 0 4 5 4 10 0 6 -5 10 -11 10 -5 0 -7
-4 -4 -10z"/>
<path d="M1365 30 c-3 -5 -1 -10 4 -10 6 0 11 5 11 10 0 6 -2 10 -4 10 -3 0
-8 -4 -11 -10z"/>
<path d="M2810 20 c-19 -11 -31 -19 -27 -20 11 0 67 29 67 35 0 7 -1 7 -40
-15z"/>
<path d="M1441 14 c0 -11 3 -14 6 -6 3 7 2 16 -1 19 -3 4 -6 -2 -5 -13z"/>
<path d="M1680 21 c0 -5 7 -11 14 -14 10 -4 13 -1 9 9 -6 15 -23 19 -23 5z"/>
</g>
</svg>
